<?xml version="1.0" encoding="UTF-8"?>
<svg id="Calque_1" data-name="Calque 1" xmlns="http://www.w3.org/2000/svg" viewBox="0 0 500 249.36">
  <defs>
    <style>
      .cls-1 {
        fill: #25262a;
      }
    </style>
  </defs>
  <path class="cls-1" d="M484.4,61.99s0,.03,0,.04c0,.01,0,.03,0,.04,0,0,0,0-.01.02-.02.08-.06.15-.12.19,0,0-.02.01-.03.02-.06.05-.14.08-.22.08-.03,0-.05,0-.08,0l-3.63-.84-3.58-1.04h0s0,0,0,0l-3.75-1.33-3.67-1.54s0,0,0,0h0l-1.03-.55-.97-.7-.87-.82-.76-.93s0,0,0,0,0,0,0,0l-1.08-1.73-.86-1.86h0s0,0,0,0l-.68-2.04-.47-2.11h0s-.28-2.31-.28-2.31l-.06-1.74v-.58s0,0,0,0h0s.21-3.12.21-3.12l.26-1.86h0s.47-2.18.47-2.18l.67-2.13.54-1.39h0s1.04-2.24,1.04-2.24l1.19-2.17.87-1.4h0s0,0,0,0l1.73-2.43,1.43-1.72.51-.55s0,0,0,0c0,0,0,0,0,0l.72-.67.84-.58.91-.45.97-.3s0,0,0,0c0,0,0,0,0,0l1.51-.2h.26s.26,0,.26,0h0l2.22.29h0s2.82.84,2.82.84h0l2.46.94s0,0,0,0c.03,0,.06.03.08.05.01,0,.03.02.05.03.02.02.03.04.04.06.01.02.03.04.04.06,0,.02,0,.04.01.06,0,.03.02.06.02.09h0v40.79ZM484.4,100.23h0s0,.06-.02.08c0,.03,0,.05-.02.07,0,0,0,0,0,0l-.85,1.85h0s0,0,0,0l-.79,1.55-.93,1.5-1.05,1.41-1.16,1.32s0,0,0,0h0s-1.49,1.56-1.49,1.56c0,0-.02,0-.02,0-.07.06-.16.11-.26.11-.03,0-.06,0-.08,0l-4.87-1.08-2.12-.47-2.33-.52-2.2-.49-1.66-.37-1.75-.38-2.52-.53h0l-2.78-.57-2.65-.53-6.79-1.51-4.87-1.42-.68-.23h0l-4.17-1.62s0,0-.02,0c0,0,0,0,0,0l-.37-.23-.34-.36-.21-.44-.09-.49s0-.02,0-.02,0-.01,0-.02c0,0,0-.09,0-.1,0-.02.02-.11.02-.13,0-.02.04-.11.04-.13,0-.01.05-.09.05-.11,0,0,0,0,0,0h0s.76-1.31.76-1.31l.92-1.52,1.09-1.72,1.27-1.95,1.48-2.25h0s1.45-2.2,1.45-2.2h0l1.17-1.76,2.18-3.37h0l1.57-2.66,1.21-2.41h0l1.05-2.51h0s.9-2.8.9-2.8h0s.94-3.96.94-3.96l.76-3.94h0s.28-2.67.28-2.67l.16-1.19s0,0,0-.02h0s.03-.12.04-.13c0-.01.04-.1.05-.11,0-.01.05-.1.06-.11,0-.01.06-.1.07-.11,0,0,.07-.08.08-.09,0,0,.08-.08.09-.09.01,0,.09-.07.1-.08,0,0,.02,0,.03,0,.02-.02.04-.04.07-.06l.81-.27s.03,0,.04-.01l.1-.03h0l2.26-.19h0l1.15-.04,1.16.06s0,0,0,0c0,0,0,0,0,0l2.24.38h0l2.89.88h0l4.92,1.82h0s4.87,1.78,4.87,1.78h0l3.37,1.02,3.09.63h0l1.9.26s.03,0,.05.02c.02,0,.05.01.07.03.02,0,.04.02.06.04s.04.03.06.05c.02.02.03.04.04.06s.03.04.03.07c0,.02.01.05.02.07,0,.02,0,.03,0,.05v34.65ZM484.4,137.27s0,.04,0,.06c0,.02,0,.04,0,.06,0,0,0,0,0,.01-.02.07-.07.12-.12.17-.01,0-.02.02-.04.03-.06.04-.13.06-.2.06-.04,0-.08,0-.12-.02l-4.29-1.33-3.83-1.11h0l-1.33-.42h0s0,0,0,0c0,0-.17-.06-.17-.06,0,0-.09-.04-.1-.04,0,0-.16-.07-.16-.07s-.08-.04-.09-.04c0,0-.09-.04-.09-.05-.02,0-.03-.03-.05-.04-.02,0-.04,0-.06-.02-.01,0-.1-.07-.11-.08-.02-.01-.06-.06-.07-.07-.01-.01-.07-.1-.08-.12,0-.01-.05-.1-.05-.12,0-.02-.02-.08-.02-.1,0-.02,0-.03,0-.05,0-.03-.02-.05-.02-.08,0-.02,0-.09,0-.1,0-.01.02-.1.02-.11l.03-.09h0s0-.04.01-.06l.39-.98h0s.48-1.15.48-1.15h0s.57-1.3.57-1.3h0s1.92-4.02,1.92-4.02l2.86-5.45,2.88-5.25h0s1.15-1.87,1.15-1.87c0,0,.01,0,.02-.01.05-.07.13-.12.21-.14.02,0,.03,0,.04,0,.02,0,.04-.01.06-.01.07,0,.14.03.2.06,0,0,.01,0,.02,0,0,0,.02.02.03.03.02.02.04.04.06.06.02.02.03.04.04.06,0,.02.02.05.03.07,0,.02.01.05.02.07,0,.01,0,.03,0,.04v23.58ZM484.4,165.28s0,.02,0,.04c0,.03,0,.05-.02.08,0,.03-.02.05-.03.07,0,0,0,.02-.01.03,0,0-.02.01-.02.02-.03.03-.06.06-.09.08-.01,0-.03.02-.04.03-.05.02-.1.04-.17.04-.07,0-.14-.02-.19-.06,0,0-.02,0-.02,0l-9.91-6.72h0l-2-1.35-2.09-1.39-1.9-1.25-1.3-.83s0,0,0,0l-1.57-1.04h0s-.6-.63-.6-.63l-.07-.11s0,0,0-.02c0,0,0,0,0,0,0,0-.05-.1-.05-.11,0,0-.05-.1-.05-.12,0,0-.03-.1-.04-.11,0,0-.03-.11-.03-.12,0,0-.02-.11-.02-.12,0-.01,0-.11,0-.13,0,0,0-.11,0-.12,0-.02,0-.04.02-.06,0-.02,0-.04,0-.06l.28-1.2s0,0,0,0h0s.4-1.04.4-1.04l.76-1.6s0,0,0,0l.92-1.81h0s.98-1.79.98-1.79c0,0,0,0,0,0l1.68-2.7,1.11-1.55s0,0,0,0c0,0,0,0,0,0l.5-.56.6-.5.67-.4.72-.29s0,0,0,0c0,0,0,0,.02,0l.77-.18.81-.09h.41l.81.08.4.08s0,0,0,0h0l5,1.39.71.23h0l2.4.83s0,0,0,0c.03,0,.05.03.07.04.02.01.04.02.06.04s.03.04.04.06c.02.02.04.04.05.07,0,.02.01.04.02.06,0,.03.02.06.02.08h0v24.78ZM484.4,184.25c0,.19-.14.34-.31.38,0,0,0,0-.02,0,0,0-.12.02-.12.02s-.11.01-.11.01h0s0,0,0,0l-.61.03-.95-.09-.91-.28s0,0,0,0h0l-4.74-2.12-2.23-1.05-3.47-1.57h0l-3.93-1.75-3.86-1.68-3.59-1.55-3.1-1.35h0s-2.69-1.18-2.69-1.18c0,0,0,0,0,0s-.1-.05-.1-.05c0,0-.1-.05-.1-.05,0,0-.1-.05-.1-.06,0,0-.1-.06-.1-.06,0,0,0,0,0,0h0s-.11-.07-.12-.08c0,0-.09-.08-.1-.09,0-.01-.08-.09-.09-.1-.01-.01-.07-.1-.08-.12,0-.01-.06-.11-.06-.13,0-.01-.04-.11-.05-.13,0-.02-.03-.12-.03-.14,0-.03,0-.06,0-.08,0-.02-.02-.03-.02-.05v-.13s.16-1,.16-1h0s.77-1.72.77-1.72h0s0,0,0,0l1.77-3.17,1.14-1.95h0s1.14-1.89,1.14-1.89h0s1-1.61,1-1.61c0,0,0,0,0,0l.6-.88s0,0,0,0l1.09-1.49s.01,0,.02,0c.06-.07.13-.12.22-.14.01,0,.03,0,.04,0,.07,0,.14,0,.21.03l2.78,1.36,1.63.85h0l3.12,1.77s0,0,0,0l3.66,2.12,3.82,2.25,3.93,2.32h0l4.01,2.34h0s.23.14.23.14c0,0,.01.01.02.02.15.06.25.2.25.36v13.74ZM484.4,224.85c0,.09-.04.18-.09.24,0,0,0,0,0,.02l-.7.75-2.17,1.85s0,0,0,0l-2.18,1.36h0s0,0,0,0l-.85.33-.93.12h-.02l-1.51-.13-.5-.11h0l-3.57-1.04h0s-3.55-1.22-3.55-1.22t0,0h0l-1.93-.91-.27-.16h0s0,0,0,0l-2.34-1.5h0s0,0,0,0l-1.83-1.38h0s0,0,0,0l-1.28-1.19s0,0,0,0c0,0,0,0-.01,0l-.33-.56-.07-.41s0,0,0-.02c0,0,0-.01,0-.02s0-.14,0-.15c0,0,0-.09,0-.1,0,0,.03-.14.03-.14,0-.01.03-.09.03-.1,0,0,.05-.14.05-.15h0s.48-1.09.48-1.09h0s.64-1.28.64-1.28h0s.76-1.35.76-1.35h0s2.32-3.74,2.32-3.74l2.48-3.63s0,0,0,0l3.65-4.86,2.28-2.84h0s5.04-5.82,5.04-5.82l.74-.81s0,0,0,0h0s.8-.79.8-.79l.89-.73.95-.64,1-.55h0s1.31-.58,1.31-.58c0,0,0,0,0,0h.01s0,0,0,0c.02-.01.06-.03.07-.03h0s0,.01,0,.01c.06-.04.12-.06.19-.06.21,0,.39.18.39.39v33.04ZM460.42,227.14l-.15.67-.25.63s0,0,0,0c0,0,0,0,0,.01l-.71,1.28-.85,1.21-.64.76s0,0,0,0h0s-2.49,2.67-2.49,2.67h0c-.07.07-.17.12-.28.12h-40c-.06,0-.11-.01-.16-.04h0s-.04-.03-.06-.04c-.02-.01-.04-.03-.06-.04-.02-.02-.03-.05-.05-.07-.01-.02-.03-.04-.04-.06,0-.03-.01-.06-.02-.1,0-.02,0-.03,0-.05h0s0-.06.02-.09c0-.02,0-.04.02-.06h0s.35-.78.35-.78h0s1.51-3.11,1.51-3.11h0s1.8-3.39,1.8-3.39l3.99-7.18h0s2.64-4.44,2.64-4.44h0s2.01-2.97,2.01-2.97h0s1.54-1.82,1.54-1.82l.24-.24s0,0,0,0h0s1.09-.96,1.09-.96h0s0,0,0,0l.91-.47h.01s0,0,0,0l.76-.11h.26s0,.01,0,.01h0l1.41.22h0s0,0,0,0l1.61.46.93.4s0,0,0,0l4.75,2.37h0s5.28,2.9,5.28,2.9h0l4.98,3.02,1.44.9s0,0,0,0l1.49.9,1.33.78s0,0,0,0l.85.46h0s0,0,0,0l.79.46h0l.91.64h0s0,0,0,0l.9.72s0,0,0,0h0l.74.7s0,0,0,0c0,0,0,0,0,0l.41.49.34.58.25.62.15.66s0,0,0,.01c0,0,0,0,0,.02l.04.65-.06.67ZM414.02,223.79h0l-3.08,4.6h0s-2.78,3.61-2.78,3.61c0,0,0,0,0,0h0s-1.14,1.2-1.14,1.2l-1.29,1.05s0,0,0,0,0,0,0,0l-.1.06s-.11.07-.11.07-.08.05-.09.05c0,0,0,0-.02,0-.05.03-.11.04-.17.04h-2.37s-.08,0-.13-.02h-.02s0-.01,0-.01l-2.07-.87-.29-.15h0s0,0,0,0l-11.62-6.46-12.71-7.37h0s-7.72-4.82-7.72-4.82l-2.53-1.67h0l-7.84-5.46s0,0,0,0c0,0,0,0,0,0l-.68-.56-.61-.67-.52-.75-.41-.81h0s0-.01,0-.01l-.38-1.21h0s0,0,0-.01l-.06-.66.04-.41s0,0,0,0h0s.34-1.25.34-1.25t0,0h0s.94-2.2.94-2.2c0,0,0,0,0,0l1.07-2.13,1.27-2.03.95-1.29s0,0,0,0c0,0,0,0,0,0l1.88-2.29,2.68-2.92.7-.7h0s2.7-2.54,2.7-2.54l2.84-2.38s0,0,0,0c0,0,0,0,0,0l.83-.55.93-.42,1-.27,1.02-.1s0,0,.01,0c0,0,0,0,0,0h.04s.07,0,.1.02l.82.12.55.23s0,0,0,0c0,0,0,0,0,0l1.76,1.15s0,0,0,0h0l2.54,2.17h0l4.48,4.25,5.65,5.3h0s3.93,3.31,3.93,3.31l4.66,3.39h0s9.13,6.14,9.13,6.14l3.29,2.23,2.87,2.04,2.38,1.76s0,0,0,0c0,0,0,0,0,0l.63.68s0,0,0,0c0,0,0,0,0,0l.07.12s.04.08.05.1c0,0,.06.13.06.13,0,.01.04.09.04.1l.04.13h0s0,.01,0,.02c0,0,.04.17.04.17,0,0,.02.09.02.1,0,0,.03.17.03.17s.01.09.01.1c0,0,.01.09.01.1,0,.02,0,.04,0,.06,0,0,.01.01.01.02,0,0,0,.1,0,.1s0,.1,0,.1c0,0,0,.18,0,.19,0,0,0,.1,0,.11l-.11.03s.07.09.09.15h.02s0,.1,0,.11h0s0,.1,0,.1-.02.18-.02.18-.02.18-.02.18-.02.09-.02.1c0,0-.02.09-.02.1,0,0-.01.02-.02.03,0,.02,0,.05,0,.07l-.49,1.45-.43.83h0s-2.72,4.45-2.72,4.45h0M393.29,234.14s0,.05-.02.07c0,.03-.02.05-.03.07,0,0,0,.02-.01.03,0,0-.01.01-.02.02-.03.04-.06.06-.1.09-.01,0-.03.02-.04.03-.05.03-.11.04-.17.04h-51.89c-.05,0-.1-.01-.15-.03h0s-.03-.02-.05-.04c-.03-.02-.05-.03-.07-.05-.02-.02-.03-.04-.04-.06-.01-.02-.03-.04-.04-.06-.01-.04-.02-.07-.02-.11,0-.01,0-.02,0-.04,0-.04.01-.07.02-.1,0-.02,0-.03,0-.05h0s.35-.76.35-.76h0s.62-1.14.62-1.14h0s1.19-1.98,1.19-1.98t0,0l1.43-2.29h0s1.51-2.34,1.51-2.34h0s1.6-2.48,1.6-2.48l1.73-2.71,1.6-2.54s0,0,0,0l1.16-1.9.96-1.52h0l.91-1.29h0s.8-1.01.8-1.01c0,0,0,0,0,0s0,0,0-.02c0,0,.09-.09.1-.1.02-.02.08-.06.11-.07,0,0,.11-.05.12-.06.02,0,.12-.04.14-.04.01,0,.12-.01.13-.01,0,0,0,0,.02,0,0,0,0,0,0,0,0,0,.14,0,.14,0,.02,0,.09.01.11.02.01,0,.13.04.14.04.02,0,.08.03.1.04,0,0,.12.06.13.06h0s0,0,0,0l2.71,1.56s0,0,0,0l3.11,1.84h0l3.57,2.19h0s4.07,2.49,4.07,2.49h0s4.64,2.76,4.64,2.76l4.48,2.61,3.54,2h0l10.22,5.88h0s0,0,0,0l.95.59s.02.02.03.03c.02.02.04.03.06.06.02.02.03.04.04.06,0,.02.02.04.03.06,0,.03.01.05.02.08,0,.01,0,.03,0,.04s0,.02,0,.03M339.5,228.67l-.81.49-.85.42-.88.34-.91.27s-.02,0-.02,0c0,0,0,0-.01,0l-.82.16-.87.08h-.88s-.88-.09-.88-.09l-.86-.18-.83-.27-.81-.35-.77-.43s0,0-.01,0c0,0,0,0,0,0l-2.05-1.39-1.96-1.53-1.86-1.66-1.74-1.78h0s0,0,0,0l-2.84-2.88-2.12-1.71-.32-.21-1.76-.99-.61-.27-2.3-.72-.33-.07h0l-2.49-.66-.81-.28s0,0,0,0h0l-2.39-1.05-.77-.41h0s0,0,0,0l-2.56-1.65-.35-.27h0s-1.94-1.69-1.94-1.69l-.6-.61h0s-1.51-1.56-1.51-1.56h0s-2.03-2.02-2.03-2.02l-2.17-2.11-1.99-1.88h0s-2.64-2.69-2.64-2.69l-.83-.95s0,0,0,0h0s-.42-.58-.42-.58l-.34-.66-.24-.7-.13-.73s0-.01,0-.02c0,0,0,0,0,0l-.03-.77.14-1.19.34-1.15s0,0,0,0h0s2.67-6.08,2.67-6.08h0s2.36-4.78,2.36-4.78h0s2.22-4.01,2.22-4.01h0s1.95-3.09,1.95-3.09t0,0h0s1.06-1.27,1.06-1.27l.41-.38s0,0,.01,0c0,0,0,0,0,0l.51-.28.47-.07h.15s0,.01,0,.01,0,0,.01,0l2.24.38h0l3.46.84h0l5.87,1.65h0s9.16,2.84,9.16,2.84l1.3.43h0l3.58,1.34,3.5,1.56s0,0,0,0h0l2.14,1.13,2.08,1.26,1.34.91s0,0,0,0l2.75,2.09,2.61,2.27s0,0,0,0l4.39,4.31,3.89,4.3,3.03,3.79h0s0,0,0,.01l.66,1.08.45,1.21h0s0,.02,0,.02l.17,1.06v.27s-.04.82-.04.82c0,0,0,0,0,0h0s-.61,2.93-.61,2.93h0s-1.2,3.47-1.2,3.47c0,0,0,0,0,0l-1.76,3.83h0s-1.39,2.6-1.39,2.6l-1.51,2.53-1.62,2.47-1.73,2.39s0,0,0,0c0,0,0,0,0,0l-.58.71-.66.68-.72.62-.77.56ZM327.09,234.16s0,.06-.02.08c0,.02-.02.04-.03.06-.01.03-.03.05-.05.07-.02.02-.04.03-.06.05-.02,0-.03.03-.05.04,0,0-.01,0-.02,0-.05.03-.11.04-.17.04h-53.81c-.06,0-.12-.02-.17-.04,0,0,0,0-.01,0l-2.27-1.19h0s-3.57-2.13-3.57-2.13h0s-2.45-1.79-2.45-1.79c0,0,0,0,0-.01,0,0,0,0-.01,0l-.38-.42-.24-.56-.06-.41s0,0,0-.02,0-.01,0-.02,0-.1,0-.1c0-.02,0-.08.01-.1,0,0,.02-.1.03-.11,0,0,.03-.1.04-.1h.01s0-.05.02-.07l.54-1.1h0s.69-1.29.69-1.29h0s.81-1.43.81-1.43c0,0,0,0,0,0l2.74-4.29,4.76-6.65,4.87-6.54s0,0,0,0h0s1.7-1.99,1.7-1.99l.62-.62s0,0,0,0c0,0,0,0,0,0l1.05-.89h0s0,0,0,0l.77-.36.12-.03h.01s0,0,.01,0l.49-.04.52.06s0,0,0,0l1.65.41s0,0,0,0h0l1.56.53,1.52.67.97.53s0,0,0,0h0l1.99,1.31,1.86,1.51s0,0,0,0c0,0,0,0,0,0l1.96,1.91,1.79,2.08h0s0,0,0,0l2.41,3.25,1.35,2.02s0,0,0,0l2.08,3.05,1.02,1.13.37.3.67.35.42.08h.15s.71-.13.71-.13l.26-.12.81-.33.88-.13h.3s2.07.13,2.07.13c0,0,0,0,0,0h0l2.7.59s0,0,0,0h0l2.71,1.02h0s0,0,0,0l1.4.75,1.3.94s0,0,0,0c0,0,0,0,0,0l2.83,2.57.39.39h0s2.67,2.98,2.67,2.98l.36.44s0,0,0,0h0l1.4,1.97.74,1.25h0s.1.19.1.19c0,0,0,.01,0,.02,0,.02.01.05.02.07,0,.03.02.06.02.08,0,0,0,.01,0,.02,0,.02,0,.03,0,.05M259.93,220.68h0l-4.12,4.46-1.43,1.43h0s-6.23,6.28-6.23,6.28h0s-1.46,1.52-1.46,1.52h0c-.07.07-.17.12-.28.12h-44.13c-.09,0-.17-.04-.24-.09,0,0-.01,0-.02,0,0,0-.07-.06-.07-.07,0,0-.01-.02-.02-.03,0,0-.02,0-.02,0l-2.03-2.13-.27-.32s0,0,0,0c0,0,0,0,0,0l-.5-.74-.37-.83-.17-.58s0,0,0,0h0s-.2-.84-.2-.84h0s-.26-1.02-.26-1.02h0s-.27-1.01-.27-1.01h0s0,0,0,0l-.24-.84-.2-.79h0s-.04-.19-.04-.19c0,0-.02-.1-.02-.1,0,0-.02-.1-.02-.1,0,0-.02-.1-.02-.1,0,0-.03-.19-.03-.19,0-.02,0-.05,0-.06,0-.01-.02-.02-.02-.03,0,0-.02-.17-.03-.18l.1-.03s.06-.08.09-.11l-.21-.02s-.02-.17-.02-.17c0,0-.01-.17-.01-.18,0,0,0-.12,0-.12,0,0,0-.11,0-.12,0-.01.02-.12.02-.13,0,0,.02-.11.02-.12,0,0,0,0,0-.02h0,0s.02-.06.04-.09h-.02s.02,0,.02,0c.02-.03.05-.06.07-.08l-.07-.03h.06s-.02-.09-.02-.15h0s0-.01,0-.02c0,0,0-.02,0-.03l.16-1.12.17-1.35.16-1.46h0s.48-2.99.48-2.99c0,0,0,0,0,0h0s.63-2.04.63-2.04l.12-.28s0,0,0,0h0s.76-1.36.76-1.36l.31-.42s0,0,0,0h0s1.05-1.05,1.05-1.05l.41-.3s0,0,0,0c0,0,0,0,0,0l1.03-.56s0,0,0,0c0,0,0,0,0,0l.12-.03s0,0,.02,0l.65-.14s.08-.02.13-.03h.03s0,0,0,0h0l1.13.15h0l1.98.58h0l1.43.5h0l1.56.62h0s1.47.66,1.47.66h0l1.11.58h0l.99.48,1.03.33.7.14,2.32.2h.47s.93,0,.93,0l2.5-.25,1.48-.29,2.3-.69,1.32-.55,1.63-.71h0l2.07-.81h0l2.17-.79h0l1.92-.64h0l2.11-.66,2.81-.88h0l2.98-.93h0s2.72-.86,2.72-.86t0,0l8.17-2.37,1.18-.31h0l3.23-.71,3.28-.46h0l1.68-.09,1.69.06,1.12.13s0,0,.02,0c0,0,0,0,0,0l.77.18.76.33.68.47.59.58s0,0,0,.01c0,0,0,0,0,0h0c.04.06.05.12.06.18l.06-.03s.06.08.06.08c0,0,.06.08.06.08,0,0,.06.08.06.08,0,0,.06.08.06.08,0,0,.11.16.11.16,0,0,.06.08.06.09,0,0,.05.08.06.08,0,0,.05.08.05.09l.1.16s.05.09.05.09l.05.09s.05.09.05.09h0s0,0,0,0c0,0,.07.16.07.16,0,0,.07.15.07.16,0,0,.07.16.07.17,0,0,.06.16.06.16,0,0,0,0,0,0,0,0,0,0,0,0,0,0,.04.12.04.12,0,0,.03.13.04.14,0,0,.02.13.02.15,0,0,0,.13,0,.14h0v.02l-.05.8-.16.81-.28.78-.38.73s0,0,0,0c0,0,0,0,0,0l-3.12,4.69-.47.65h0s-2.94,3.81-2.94,3.81l-1.87,2.21ZM196.28,221.34s0,0,0,0l-.79,1.66s0,0,0,0c0,0,0,0,0,0l-.85,1.07s0,0,0,0c0,0,0,0,0,0l-1.21.82s0,0,0,0c0,0,0,0,0,0l-2.05.91h0s0,0,0,0l-3.16,1.19-3.22,1.02-3.27.86-3.31.68s0,0,0,0h0l-3.42.53-3.45.37-3.47.2-1.74.04h-1.74s0,0,0,0l-3.65-.13-3.64-.3-3.63-.46-3.6-.63h0l-3.81-.82-3.79-.96-3.75-1.1-3.7-1.24h0s0,0,0,0l-1.65-.74-.94-.56s0,0,0,0c0,0,0,0,0,0l-1.02-.81-.88-.99s0,0,0,0c0,0,0,0,0,0l-1.09-1.7-.54-1.09s0,0,0,0h0s-1.95-4.85-1.95-4.85l-1.81-5.45h0s0,0,0,0l-.46-1.93-.27-1.98h0s-.04-.74-.04-.74l.11-1.49.14-.74s0,0,0,0h0s.31-.94.31-.94l.47-.89.4-.54s0,0,0,0,0,0,0,0l.78-.79.92-.66.66-.35s0,0,0,0c0,0,0,0,0,0l1.65-.62,1.73-.41h.01l2.17-.27,1.65-.06h.55s0,0,0,0l4.02.26,1.33.16h0l2.69.35,3.01.4,2.88.38,2.23.29h0l3.86.61h0l5.77,1.14h0s8.81,1.88,8.81,1.88l15.23,3.34h0l4.63,1.2s0,0,0,0l2.16.77,1.26.57s0,0,0,0h0l1.5.88.84.63s0,0,0,0c0,0,0,0,0,0l.57.57.46.7.23.51s0,0,0,0c0,0,0,0,0,0l.33,1.26.08.79h0s0,0,0,.01v.62s-.09,1.9-.09,1.9h0s-.53,2.79-.53,2.79h0s-.94,2.81-.94,2.81h0M148.92,234.16s0,.04,0,.06c0,0,0,0,0,.01-.02.07-.06.13-.12.18-.01,0-.02.02-.04.02-.06.04-.13.07-.21.07h-33.35c-.06,0-.11-.02-.16-.04,0,0,0,0,0,0-.02,0-.03-.02-.04-.03-.03-.02-.05-.03-.07-.05-.02-.02-.03-.04-.04-.06-.01-.02-.03-.04-.04-.06-.01-.03-.01-.06-.02-.08,0-.02,0-.04,0-.06,0,0,0,0,0,0,0-.03,0-.05.01-.08,0-.03,0-.05.02-.07,0,0,0,0,0-.01l1.68-3.34,1.88-3.54,1.63-2.95s0,0,0,0h0s.67-.79.67-.79h0s0,0,0,0l1.25-.68h.01s0,0,0,0l.97-.16.34.02s0,0,0,0h0l.95.28.3.17h0s0,0,0,0l.95.82.11.14h0l1.33,1.46,1.47,1.28,1.71,1.21,1.81,1.03,2.1.96,2.16.78,3.15.85,1.91.39h0l1.19.25h0s1.9.47,1.9.47l2.16.57h0l2.09.58s.02,0,.02.01c.03,0,.05.02.07.04.02.01.04.03.06.04.02.02.03.04.05.06s.03.04.04.06c0,.02.02.05.02.07,0,.03.01.05.01.08,0,0,0,.02,0,.02,0,.02,0,.04-.01.06M114.7,223.04h0s-.77,2.25-.77,2.25l-.97,2.17h0s-3.52,6.83-3.52,6.83c0,0-.01.01-.02.02-.03.05-.06.08-.1.11-.01,0-.03.02-.04.03-.06.03-.11.05-.18.05h-41.18c-.06,0-.11-.01-.16-.04h0s-.03-.03-.05-.04c-.03-.02-.05-.03-.07-.05-.02-.02-.03-.04-.04-.06-.01-.02-.03-.04-.04-.06-.01-.03-.02-.06-.02-.09,0-.02,0-.04,0-.06h0s0-.06.02-.09c0-.02,0-.05.02-.07t0,0l3.46-7.15h0s1.3-2.37,1.3-2.37l1.43-2.3,1.02-1.49s0,0,0,0l1.31-1.7,1.44-1.6,1.03-1.01s0,0,0,0c0,0,0,0,0,0l1.51-1.28,1.64-1.14,1.15-.67s0,0,0,0t0,0l2.12-1h0l1.78-.52h0s0,0,0,0l2.19-.23h0l3.96-.06h0l3.29.09,3.28.29h0s2.86.46,2.86.46l2.12.51.7.2s0,0,0,0h0l2.38.85,1.73.79.56.3h0s0,0,0,0l1.42.87,1.33,1.04.82.78s0,0,0,0,0,0,0,0l.45.53.39.61.3.66.2.69s0,0,0,.01c0,0,0,0,0,.01l.13,1.09-.07,1.11-.16.73s0,0,0,0M64.97,233.75h0s-.06.07-.09.11l.04.02s-.06.14-.06.14l-.11-.03s.02.08.02.12c0,0,0,0,0,.02l.03.02-.06.13s0,0-.01.02c-.03.05-.07.09-.11.12-.01,0-.03.02-.04.03-.06.03-.11.05-.18.05h-12.55c-.11,0-.21-.05-.28-.12,0,0,0,0,0,0l-1.91-2.05s0,0,0,0l-1.89-2.36-.57-.83s0,0,0,0c0,0,0,0,0,0l-1.15-2.01-.32-.7s0,0,0,0h0s-1.69-4.22-1.69-4.22h0s-1.87-5.46-1.87-5.46h0s-2.04-6.73-2.04-6.73l-.67-2.29-.83-2.78h0s-.85-2.82-.85-2.82h0s-.74-2.39-.74-2.39l-1.66-5.94s0,0,0,0h0s-.48-2.59-.48-2.59l-.14-1.58s0,0,0,0,0,0,0,0v-.35s.08-1.47.08-1.47l.22-1.08s0,0,0-.01h0s.19-.54.19-.54l.3-.53.39-.46.46-.39h0s0-.01.02-.02l.6-.32.68-.2.47-.05s0,0,0,0h.82s2.45.07,2.45.07h0l4.02.46h0s4.42.88,4.42.88l4.59.98,3.09.39.73.02,1.17-.09.31-.24.02-.11s.02-.06.03-.08h-.03s.03,0,.03,0c.02-.04.04-.06.06-.09l-.08-.02v-.13s.03,0,.03,0c0-.04-.02-.07-.02-.11h0s0,0,0,0h0l.05-1.23h0s.05-1.49.05-1.49l.04-1.61.09-4.06h0s0-.01,0-.02c0-.11.06-.2.13-.27l3.3-3.01h0s2.95-2.47,2.95-2.47h0l1.91-1.26.67-.36h0s0,0,0,0l1.94-.79.67-.19h0s0,0,0,0l2.61-.5.38-.04h0l1.72-.11h.16s1.08.08,1.08.08c0,0,0,0,0,0,0,0,0,0,0,0l.98.31h0s0,0,0,0l.86.57s0,0,0,.01c0,0,0,0,.01,0l.57.65.3.52.2.56.06.29s0,0,0,0c0,0,0,0,0,.01l.23,2.08.02.84v.42s0,0,0,0h0s-.2,2.89-.2,2.89l-.24,1.73h0s-1.22,6.07-1.22,6.07h0s-.77,3.41-.77,3.41l-.89,4.14-.87,4.17-.7,3.54-1.51,7.37-1.32,5.02h0s-1.76,5.05-1.76,5.05h0s-3.08,7.6-3.08,7.6h0s-3.34,7.67-3.34,7.67ZM45.41,234.11s0,0,0,.01c0,.1-.05.19-.11.26,0,0,0,0,0,0,0,0,0,0,0,0-.07.06-.16.1-.26.1H15.99c-.22,0-.39-.18-.39-.39v-7.06c0-.22.18-.39.39-.39,0,0,.02,0,.03,0,0,0,0,0,.01,0s.1.01.1.01v.02s.05.03.08.05c.01,0,.03-.02.04-.02v-.03s0,.03,0,.03c.04-.01.08-.02.13-.02h0l8.82.96,9.5.91s0,0,0,0l3.5.38h0l1.76.44s0,0,0,0c0,0,0,0,0,0l1.27.69.17.12s0,0,0,0h0l1.89,1.64h0s1.97,1.98,1.97,1.98c0,0,0,0,0,0,.06.07.1.16.1.26,0,0,0,0,0,0M15.6,190.68s0-.03,0-.05c0-.03,0-.05.02-.07,0-.02.02-.05.03-.07.01-.02.03-.04.04-.06.02-.02.04-.03.06-.05s.04-.03.06-.04c.02-.01.05-.02.07-.03.02,0,.03-.02.05-.02l4.79-.6.69-.06h0l3.3-.2h0s0,0,0,0l.79-.02,1.34.04s0,0,0,0h0s1.61.24,1.61.24h0l1.48.51s0,0,0,0c0,0,0,0,0,0l.76.41.72.52.65.61.56.69s0,0,0,0,0,0,0,0l.91,1.41.79,1.5.44,1.03s0,0,0,0c0,0,0,0,0,0l1.07,3,.84,3.09h0s1.71,8.1,1.71,8.1l.22,1.16h0s1.05,6.83,1.05,6.83h0s0,.02,0,.02l.03.69-.09.72-.21.69-.33.64s0,0-.01.02c0,0,0,.01,0,.02l-.41.52-.53.46-.61.34-.67.21s0,0-.01,0c0,0,0,0,0,0l-5.14.87-.74.09h0l-4.04.39-4.06.17h-1.35s-1.35,0-1.35,0h0l-3.16-.21-1.05-.13s-.03-.01-.05-.02c-.02,0-.05-.01-.07-.03-.02,0-.04-.03-.06-.04-.02-.02-.04-.03-.06-.05-.02-.02-.03-.04-.04-.06-.01-.02-.02-.04-.03-.06,0-.03,0-.05-.02-.08,0-.02,0-.03,0-.05v-33.04ZM15.6,148.7s0-.02,0-.03c0-.03,0-.05.02-.08,0-.02,0-.05.02-.07.01-.02.03-.04.04-.06.02-.02.03-.04.05-.06.02-.02.04-.03.06-.04.02-.02.05-.03.07-.04,0,0,.01,0,.02,0l.19-.06s.1-.03.1-.03l.28-.07.09-.03.1-.03h0s0,0,0,0l.72-.08.51.07.48.17.22.12s.01,0,.02.01h.02s.37.29.37.29l.33.38.24.45.14.49s0,0,0,.01c0,0,0,0,0,0l.6,4.6.45,3.45.66,3.33.85,3.12h0s1,2.79,1,2.79l.48.78.96.96,1.32,1.03,1.65,1.05h0l3.05,1.91s0,0,0,0l2.66,1.91h0s2.09,1.72,2.09,1.72c0,0,0,0,0,0,0,0,0,0,0,0l.35.47.14.45v.16s0,.02,0,.02c0,0,0,.02,0,.03l-.07.52-.24.53-.39.43-.5.3s0,0-.01,0c0,0,0,0-.02,0l-5.81,2.09h0l-4.65,1.33-1.57.37h0l-2.47.42-2.51.17-1.72.12h-.05c-.09,0-.18-.04-.24-.09,0,0-.01,0-.02-.01-.06-.06-.1-.14-.12-.22,0,0,0-.01,0-.02,0,0,0-.02,0-.02,0,0,0-.02,0-.02v-35.04ZM15.6,114.32s0,0,0,0c0-.03,0-.06.02-.08,0-.02,0-.05.02-.07h0s.02-.04.04-.05c.02-.03.03-.05.06-.07.01-.01.03-.02.05-.03.03-.02.05-.04.08-.05.02,0,.03,0,.05,0,.03,0,.06-.02.09-.02h0s.04,0,.06.01c.03,0,.06,0,.09.02,0,0,0,0,0,0l3.84,1.86,5.46,2.85s0,0,0,0h0l3.07,1.88.42.29s0,0,0,0c0,0,0,0,0,0l1.82,1.5.24.24s0,.01,0,.02c0,0,0,0,.01,0l.23.3.16.41.04.43-.08.43s0,0,0,.01c0,0,0,.02,0,.03,0,0-.04.09-.04.1,0,0-.04.09-.05.09,0,0-.05.08-.05.09,0,0-.06.08-.06.09,0,0-.06.08-.07.09s-.06.07-.07.07c0,0-.07.07-.08.07-.01,0-.03,0-.05.02,0,.01,0,.03-.02.04l-1.59,1.23-1.96,1.41s0,0,0,0l-2.26,1.49-4.07,2.84-1.33,1.13-1.19,1.25-.86,1.17-.68,1.27-.6,1.58s0,0,0,.01c-.03.07-.07.12-.12.17-.01,0-.03.02-.04.03-.06.04-.13.06-.2.06-.04,0-.08,0-.12-.02,0,0,0,0-.02,0-.03,0-.05-.03-.07-.04-.02-.01-.04-.03-.06-.04-.02-.02-.03-.04-.05-.06-.01-.02-.03-.04-.04-.06,0-.02-.01-.04-.02-.07,0-.03-.01-.05-.02-.08,0,0,0-.01,0-.02v-23.81ZM15.6,89.33s0-.02,0-.03c0,0,0-.02,0-.02,0-.02.01-.03.02-.05,0-.03.02-.05.03-.07.01-.02.03-.04.04-.06.02-.02.03-.04.05-.06.02-.01.04-.03.06-.04.03-.02.05-.03.07-.04.02,0,.05,0,.07-.01.02,0,.04-.01.06-.01,0,0,.02,0,.02,0,0,0,.02,0,.03,0l1.09.19,8.51,1.98,8.43,2.11h0l5.83,1.71h0l6.43,2.21h0s0,0,0,0l2.91,1.22.94.47s0,0,0,0h0l1.87,1.11,1.06.77s0,0,0,0c0,0,0,0,0,0l2.63,2.28.35.35s0,0,0,0l3.53,3.68s0,0,0,0c0,0,0,0,0,0l.45.62.32.73.13.52s0,0,0,.02c0,0,0,0,0,.02l.04.48-.1.77-.29.72s0,0,0,0c0,0,0,0,0,0l-2.24,3.61-1.43,2.03h0s-1.65,2.19-1.65,2.19l-1.62,2.03h0l-1.31,1.5h0s-1.7,1.73-1.7,1.73h0s0,0,0,0l-1.19.87h0s0,0,0,0l-1.08.39-.17.03h-.01l-1.68.14h0l-2.02-.16-.29-.06h0s0,0,0,0l-1.92-.58-.27-.11s0,0,0,0h0s-2.66-1.4-2.66-1.4h0s-4.15-2.67-4.15-2.67l-2.05-1.3-2.77-1.63-2.96-1.66-2.71-1.43h0l-4.75-2.48-2.99-1.73-.76-.49s-.02-.02-.03-.03c-.02-.02-.04-.04-.06-.06-.02-.02-.03-.04-.04-.06,0-.02-.02-.05-.03-.07,0-.03-.01-.05-.01-.08,0-.01,0-.03,0-.04v-20.1ZM15.6,73.2c0-.08.03-.16.07-.22,0,0,0-.01,0-.02,0,0,0,0,.02,0,.06-.07.13-.12.22-.13.01,0,.02,0,.03,0,.02,0,.03,0,.04,0,.08,0,.15.03.21.07,0,0,.01,0,.02,0l.99.76h0s4.63,3.69,4.63,3.69l3.31,2.83s0,0,0,0h0l.81.89.39.62s0,0,0,0c0,0,0,0,0,0l.48,1s0,.01,0,.02c0,0,0,0,0,0,0,0,.04.14.05.15,0,0,.02.08.02.1,0,.01,0,.09,0,.1,0,.01,0,.09,0,.1,0,.03-.01.11-.02.13,0,.01-.02.09-.03.1,0,0-.01.02-.02.03,0,.02,0,.04-.01.06,0,.01-.04.08-.04.1,0,0-.08.13-.08.14-.01.02-.07.08-.08.1,0,0-.06.06-.07.07,0,0-.07.06-.08.06,0,0-.12.08-.13.08,0,0,0,0,0,0,0,0,0,0-.01,0l-1.04.48h0s0,0,0,0l-.93.31-.98.21-1,.09-1-.03h-.02l-2.74-.37-2.71-.59s-.02,0-.03-.01c-.03,0-.05-.02-.07-.04-.02-.01-.04-.02-.06-.04-.02-.02-.03-.04-.05-.06-.02-.02-.03-.04-.04-.06,0-.02-.02-.05-.02-.07,0-.03-.01-.05-.02-.08,0,0,0-.02,0-.03v-10.57ZM15.6,38.43c0-.22.18-.39.39-.39,0,0,.02,0,.03,0,.02,0,.03,0,.04,0l7.33-.58h0s8.94-.95,8.94-.95c.02,0,.04,0,.06,0,.02,0,.05,0,.07,0,.03,0,.06.02.08.03.01,0,.03,0,.04.02l2.52,1.62s0,0,0,0l2.5,1.74,2.36,1.93h0s0,0,0,0l8.12,7.38,8.51,8.05s0,0,0,0c0,0,0,0,0,0l.33.39.27.48.17.52.06.54s0,.02,0,.03c0,0,0,0,0,0,0,.01,0,.1,0,.11,0,0-.01.09-.01.1,0,.01-.02.1-.03.11,0,0-.03.09-.03.1,0,0-.04.09-.04.1,0,.01-.05.09-.06.1,0,0-.05.08-.06.09,0,.01-.03.02-.04.04,0,0,0,.03-.01.04l-.72.69h0s0,0,0,0l-1.06.73h0s-1.38.73-1.38.73h0s-1.39.77-1.39.77l-1.59,1.06-1.51,1.16-1.16,1.07-1.27,1.51-.36.53h0s-1.2,2.2-1.2,2.2l-.14.32-1.39,3.72-1.92,6.3h0s-.54,1.64-.54,1.64c0,0,0,0,0,0h0s-.56.91-.56.91c0,0,0,0-.01,0,0,0,0,0,0,0l-.08.05s-.03.02-.04.03l-.6.39-.12.04h0s0,0,0,0l-1.24.24h-.01l-.54.04-1.12-.1-.55-.14s0,0,0,0c0,0,0,0,0,0l-1.07-.43-.99-.62s0,0,0,0c0,0,0,0,0,0l-1.96-1.69-.61-.61h0s0,0,0,0l-4.68-5.06-4.47-4.65-2.28-2.07-1.44-1.14h0l-3.33-2.34s-.02-.02-.03-.03c-.02-.02-.04-.04-.06-.06-.02-.02-.03-.04-.04-.06s-.02-.04-.03-.07c0-.03-.01-.05-.01-.08,0-.01,0-.02,0-.04v-26.6ZM15.6,15.25c0-.22.18-.39.39-.39h4.92s.02,0,.03,0,.02,0,.03,0c.02,0,.03.01.05.02.03,0,.05.02.07.03.02,0,.04.03.06.04.02.02.04.03.06.05.02.02.03.04.04.06.01.02.02.05.03.07,0,.03.01.05.02.08,0,.02,0,.03,0,.05,0,0,0,.02,0,.03s0,.02,0,.03l-.29,2.08-.85,5.69h0s-.85,4.15-.85,4.15h0s-.87,2.95-.87,2.95c0,0,0,0,0,0h0s-.41.86-.41.86l-.59.76s0,0-.01,0h0s-.76.6-.76.6l-.52.24s0,0,0,0h0s-.09.03-.14.03c-.07,0-.14-.03-.19-.06-.02,0-.03-.02-.04-.03-.06-.04-.1-.09-.13-.16,0-.03,0-.05-.01-.07,0-.02-.02-.05-.02-.07V15.25ZM23.85,26.17h0s.3-3.62.3-3.62l.07-.51h0s1.01-6.05,1.01-6.05l.15-.81s.01-.02.02-.04c0-.03.02-.05.03-.07.01-.02.03-.04.04-.06.02-.02.03-.04.05-.06.02-.02.04-.03.06-.04s.05-.02.07-.03c.02,0,.05,0,.07-.01.02,0,.03,0,.05,0h21.93s.03,0,.05,0c.03,0,.05,0,.08.02.02,0,.04.02.06.03.02.01.04.03.06.04.02.02.04.04.05.06,0,.01.02.02.03.04,0,0,0,.02,0,.03,0,.02.02.05.03.07,0,.03.01.05.01.08,0,0,0,.02,0,.03,0,.01,0,.03,0,.04,0,.03,0,.06-.02.08,0,.02-.02.04-.03.06-.01.02-.03.04-.04.06-.02.02-.04.04-.06.05-.01,0-.02.02-.04.03l-1.02.62h0l-4.28,2.91-4.25,3.35-3.83,3.51h0s-3.01,2.7-3.01,2.7t0,0h0s-1.6,1.14-1.6,1.14l-1.03.57h0s0,0,0,0l-1.33.51-.85.18h-.02s0,0,0,0h-.04l-.4.02-.7-.15-.62-.35s0-.01,0-.02c0,0-.02,0-.02,0l-.46-.49-.32-.63-.11-.46s0,0,0-.02c0,0,0,0,0,0l-.15-2.1v-.7ZM54.24,21.38l2.63-.98,3.33-1.24,3.44-1.29,3.02-1.13,5.23-1.86s.04,0,.06,0c.02,0,.04-.01.06-.01h39.98s.07.01.1.02c.02,0,.03,0,.05,0,.02,0,.04.03.06.04.02.02.05.03.06.05,0,0,.02.03.03.04.02.03.04.06.06.09h0s1.02,2.87,1.02,2.87l.77,2.95h0s.62,3.21.62,3.21l.47,3.23.23,2.16h0s.7,9.3.7,9.3l.17,3.11.33,8.36s0,0,0,0c0,0,0,0,0,0l-.06.88-.24.87-.25.55s0,0,0,0c0,0,0,0,0,.02l-.5.69-.67.58-.51.29s0,0,0,0c0,0,0,0,0,0l-6.49,2.91h0l-8.97,3.78h0l-6.51,2.56h0l-4.76,1.67h0l-1.48.34-.92.06h-.28s-1.92-.17-1.92-.17c0,0,0,0,0,0h0l-3-.63h0l-3.23-.91h0l-2.97-1.08h0l-4.13-1.88-2.48-1.41-.79-.53s0,0,0,0h0l-2.98-2.29-.41-.35h0s0,0,0,0l-4.73-4.28-3.21-2.98-3.36-3.05-3.05-2.7-2.08-1.76-1.69-1.48s0,0,0,0l-1.65-1.64-1.4-1.56h0s0,0,0,0l-.86-1.21h0s-.83-1.69-.83-1.69c0,0,0,0,0,0,0,0,0,0,0,0l-.29-1.22v-.18s0,0,0,0h0s0-.19,0-.19l.19-1.36s0,0,0,0h0s.74-2.28.74-2.28c0,0,0,0,0,0h0s.31-.65.31-.65l.45-.58.37-.33s0,0,0,0c0,0,0,0,0,0l2-1.31.3-.16h0s3.75-1.75,3.75-1.75h0l6.24-2.43M113.99,15.23s0-.05.02-.08c0-.02,0-.05.02-.07.01-.02.03-.04.04-.06.02-.02.03-.04.05-.06.02-.02.04-.03.06-.04.02-.01.05-.03.07-.04,0,0,.01,0,.02-.01.02,0,.04,0,.05,0,.02,0,.04,0,.05,0h31.13s.02,0,.03,0c.03,0,.05,0,.07.01.03,0,.05.01.07.03.02,0,.04.03.06.04.02.01.04.03.06.05.02.02.03.04.04.06.01.02.03.05.03.07,0,0,0,.02.01.03l.48,1.74.53,1.79h0s.63,2.45.63,2.45l.39,2.5s0,0,0,.01h0s.03.42.03.42l-.04.89-.18.87-.31.83-.21.4s0,0,0,0c0,0,0,0,0,.02l-.48.7-.61.64-.7.54-.78.42h0s0,0,0,0l-2.32.88-2.4.64-1.76.44h0l-2.52.75-2.76.9h0l-2.6.92-4.33,1.47h0s-2.75.65-2.75.65l-.4.06h0l-1.39.09-.84-.04h-.03l-.59-.15-.55-.33-.3-.3s0,0,0,0c0,0-.01,0-.02-.01,0,0-.09-.13-.1-.13,0-.01-.06-.09-.06-.1,0,0-.07-.14-.07-.14,0,0-.04-.08-.04-.09s-.04-.09-.04-.1c0-.02,0-.03,0-.05,0,0-.01-.01-.02-.03l-.32-1.21h0s-.3-1.48-.3-1.48h0s-.23-1.59-.23-1.59l-.3-1.87-.53-2.47-.64-2.6-.66-2.34-1.69-5.77s0-.04,0-.05c0-.02,0-.04,0-.05,0,0,0-.02,0-.03M147.31,15.22s0-.05.02-.08c0-.03.02-.05.03-.07.01-.02.03-.04.04-.06.02-.02.03-.04.05-.06.02-.02.04-.03.06-.04.03-.01.05-.03.07-.04,0,0,.02,0,.03-.01.02,0,.03,0,.05,0,.02,0,.03,0,.05,0h33.98s.06,0,.09.02c.02,0,.04,0,.06.01.03,0,.05.03.07.05.02.01.04.02.06.04s.03.04.04.06c.02.02.03.04.04.06,0,.02,0,.05.02.07,0,.03.02.05.02.08l-.02,1.39-.08,2.91-.07,2.57-.06,2.18v.54s0,0,0,0h0s-.13.66-.13.66l-.36.6s0,0-.01,0h0s-1.56,1.59-1.56,1.59h0s-2.06,1.63-2.06,1.63h0s-2.26,1.39-2.26,1.39h0s-3.06,1.41-3.06,1.41l-.45.17h0s-3.96,1.27-3.96,1.27h0l-5.71,1.33s0,0,0,0l-10.13,2h0l-1.03.15h-.02s-.01,0-.02,0h-.13s-.1-.01-.13-.02c-.01,0-.14-.04-.15-.04-.02,0-.09-.04-.11-.05-.02,0-.08-.04-.09-.05-.01,0-.02-.03-.04-.04-.01,0-.03,0-.04-.01,0,0-.1-.09-.11-.1-.01-.01-.06-.07-.07-.08-.02-.02-.06-.09-.07-.11,0-.01-.04-.08-.04-.09,0-.02-.03-.08-.03-.09,0-.02-.02-.08-.02-.1,0-.02,0-.03,0-.05,0,0,0-.02,0-.03v-.21s.03-.66.03-.66h0c0-.06.02-.1.05-.14h-.03s.04-.02.04-.02c.02-.04.06-.08.09-.11l-.13-.03.19-.04s-.08-.06-.12-.1h-.07s.06-.03.06-.03c-.02-.04-.06-.07-.06-.13,0-.06,0-.12.03-.17h-.05s.06-.03.06-.03c.03-.06.06-.1.11-.14l-.2-.02.25-.1c-.07,0-.14-.03-.19-.07h-.08s.06-.03.06-.03c-.04-.04-.08-.08-.09-.15h0s0,0,0,0c-.01-.06,0-.12,0-.18h-.05s.06-.03.06-.03c.02-.06.05-.1.09-.15h-.19s.21-.11.21-.11c-.07,0-.14-.02-.19-.06h-.07s.05-.03.05-.03c-.04-.04-.08-.07-.1-.14h.02s-.03,0-.03,0c-.01-.05-.01-.09-.01-.14h-.03s.03-.01.03-.01c0-.05.02-.1.04-.14l-.13.03.11-.08s-.09-.03-.13-.06h-.04s.03-.02.03-.02c-.04-.03-.07-.06-.1-.1t0,0h0s-.34-.97-.34-.97c0,0,0,0,0,0t0,0l-.33-2.26-.3-2.73-.22-2.99-.27-3.7-.36-2.84-.4-1.97s0-.03,0-.04c0-.02,0-.03,0-.05,0-.01,0-.02,0-.03M184.83,30.14s0,0,0,0l1.4-1.16s0,0,0,0c0,0,0,0,0,0l.93-.42.34-.07h0s0,0,0,0l.96-.06.59.04h0s0,0,0,0l1.27.23,1.25.39.8.34h0s0,0,0,0l7.14,3.51h0s0,0,0,0l7,3.75h0s0,0,0,0l1.16.73,1.08.86.67.64s0,0,0,0,0,0,0,0l.75.95.57,1.09h0s0,.01,0,.02l.37,1.21.17,1.27s0,0,0,0c0,0,0,0,0,0l.02.78-.17,1.97-.07.39s0,0,0,0c0,0,0,0,0,0l-.99,4.1s0,0,0,0c0,0,0,0,0,0l-.37,1.15-.46,1.14-.53,1.11-.6,1.07-.67,1.03-.74.98-.79.93-.85.88s0,0-.01,0c0,0,0,0,0,.01l-.85.76-.93.71-.98.64-1.03.57-1.06.49-1.1.41-1.12.32-1.15.24s-.01,0-.02,0h0l-1.04.13-1.08.04-1.08-.06-1.07-.15-1.05-.24-1.03-.33-1-.42-.96-.51s0,0-.02-.01c0,0,0,0-.01,0l-.89-.56-.86-.66-.8-.73-.74-.8-.67-.86-.59-.91-.51-.96-.43-1h0s0-.02,0-.02l-1.33-3.67h0s-1.95-5.73-1.95-5.73l-2.05-6.13h0s-.2-.99-.2-.99c0,0,0,0,0-.01,0,0,0,0,0-.01,0,0,0-.11,0-.12,0-.01.02-.12.02-.13,0,0,.03-.1.04-.11s.05-.11.06-.12c0,0,.06-.1.07-.11,0,0,0,0,.01,0h0s1.17-1.43,1.17-1.43h0l1.44-1.66,1.71-1.86h0l2.79-2.91h0M187.92,21.44s0,0,0,0h0s.31-1.3.31-1.3l.32-.74s0,0,0,0t0,0l1.15-1.83.19-.25h0s0,0,0,0l.96-1.12s0,0,0,0l1.16-1.21c.07-.07.17-.12.28-.12h33.95s.03,0,.05,0c.02,0,.04,0,.05,0,0,0,.02,0,.03.01.03,0,.05.02.07.03.02.01.04.03.06.04.02.02.03.04.05.06.02.02.03.04.04.06.01.02.02.04.02.07,0,.03.02.05.02.08,0,0,0,.02,0,.03,0,.02,0,.03,0,.05,0,.02,0,.04,0,.05l-.36,1.27h0s-.79,2.14-.79,2.14l-.99,2.06-.76,1.32h0s-1.35,2.02-1.35,2.02l-1.51,1.91-1.08,1.21s0,0,0,0c0,0,0,0,0,0l-2.1,2.05-2.26,1.88s0,0,0,0c0,0,0,0,0,0l-.91.64-.99.56-1.03.46-1.07.37h-.01s0,0,0,0l-1.01.24-1.05.14-.53.03-1.06-.03-.53-.06h-.02l-1.82-.33-1.79-.5-1.17-.42s0,0,0,0h0l-3.41-1.52h0s0,0,0,0l-4.21-2.23h0s-3.94-2.29-3.94-2.29t0,0l-1.44-1.04-.44-.4s0,0,0,0,0,0,0,0l-.54-.68-.36-.82s0,0,0-.02c0,0,0,0,0,0l-.18-1.14.04-.7ZM226.87,23.54l2.33-4.5h0s.69-1.01.69-1.01l.52-.53s0,0,.01,0,0,0,0-.01l.48-.3.59-.16h.2s.2,0,.2,0c0,0,0,0,.01,0,0,0,0,0,.01,0l1.77.4.25.09s0,0,0,0h0l1.31.61,1.24.79.76.62s0,0,0,0c0,0,0,0,0,0l1.78,1.75,1.63,1.9s0,0,0,0h0l1.43,1.98,1.26,2.1h0s0,0,0,.01l.37.79.29.85.18.87.08.89h0c0,.07-.01.13-.04.18h.05s-.06.03-.06.03c-.03.05-.06.09-.11.13l.19.03-.18.06c.05.02.1.06.14.1h.06s-.04.02-.04.02c.04.05.06.1.07.16h0s.32,1.59.32,1.59l.43,1.88h0s.5,2,.5,2l.55,2.19.57,2.45.51,2.34.35,1.81.81,3.5,1.85,6.31,1.98,6.26,1.21,3.12,1.11,2.76h0s.84,2.89.84,2.89c0,0,0,0,0,0l.5,2.6s0,0,0,0c0,0,0,0,0,0l.06.91-.08.92s0,0,0,0c0,0,0,0,0,.01l-.19.79-.3.79-.41.73-.5.67h0s-1.58,1.69-1.58,1.69l-1.74,1.53h0s0,0,0,0l-1.88,1.37-2.01,1.19s0,0,0,0c0,0,0,0,0,0l-.79.36-.84.27-.87.17-.88.06s0,0-.02,0h0l-.64-.06-.64-.21-.39-.22s0,0-.01,0c0,0,0,0,0,0l-.95-.8-.49-.58s0,0,0,0c0,0,0,0,0,0l-1.83-2.84h0s-3.78-6.91-3.78-6.91l-4.79-8.65-3.97-6.59-3.48-5.13-2.41-3.06-.85-.98h0s-4.66-5.31-4.66-5.31t0,0h0l-.98-1.37-.47-.9s0-.02,0-.02c0,0,0,0,0,0l-.13-.4-.04-.47.06-.47.17-.44s0,0,0-.01c0,0,0-.01,0-.02l.6-.84.79-.69h0l1.96-1.51,1.08-1,3.51-3.77,3.22-4.12,1.43-2.22.75-1.39M234.94,14.86h31.16c.16,0,.3.1.36.24,0,0,0,.02,0,.04,0,.04.02.07.02.11l.02,2.88s0,0,0,.02h0s-.1.56-.1.56l-.18.36-.28.3-.17.13s0,0,0,0c0,0,0,0-.02.01l-1.16.58-.75.24s0,0,0,0h0l-3.48.74h0s-3.9.56-3.9.56c0,0-.01,0-.02,0l-3.59.22h-.58l-2.33-.12-1.74-.23h0l-2.32-.48-2.28-.67s0,0,0,0h0l-2.82-1.13-1.63-.81s0,0,0,0h0l-2.66-1.59-1.52-1.08s0,0,0,0h0s0,0,0,0c-.03-.02-.03-.06-.06-.09l-.03.03s-.09-.07-.09-.07c-.01,0-.02-.02-.03-.03-.11-.07-.18-.18-.18-.32,0-.22.17-.39.39-.39M268.53,24.97l.64.42s0,0,0,0h0l2.46,2.03.78.73h0s0,0,0,0l2.72,2.89.85,1.02h0s0,0,0,0l3.77,4.95s0,0,0,0h0s1.74,2.66,1.74,2.66l.94,1.66h0s4.54,8.63,4.54,8.63l4.67,9.2h0s0,0,0,0l.37,1,.14,1.08s0,0,0,.02,0,0,0,.02l-.07.48-.22.47-.23.27s0,0,0,0,0,0,0,.01l-1.44,1.1h0s0,0,0,0l-2.73,1.48h0l-5.88,2.79h0l-7.56,3.43s0,0,0,0l-5.14,2.05h0l-3.82,1.14s0,0,0,0l-1.94.33-1.18.07h-.18l-1.25-.06s0,0,0,0h0l-.1-.03s-.03,0-.04-.01l-.69-.23-.11-.07h0s0,0,0-.01l-.09-.09s0,0,0,0l-.53-.54-.06-.11s0,0,0,0h0s-.69-1.36-.69-1.36h0s-1.48-3.58-1.48-3.58l-1.29-3.65h0s-2.52-8.4-2.52-8.4l-.33-1.21h0s-2.09-8.5-2.09-8.5l-.27-1.22s0,0,0,0h0l-.71-3.77-.51-3.8h0s-.26-2.08-.26-2.08h0s-.35-2.21-.35-2.21l-.39-2.03h0s-.35-1.42-.35-1.42l-.33-1.14h0s-.29-1.02-.29-1.02c0,0,0,0,0,0h0l-.23-.86h0s0-.01,0-.01l-.03-.13s-.02-.11-.02-.11h.02s-.02-.03-.03-.05c0-.02,0-.09,0-.11,0-.02,0-.1.01-.12,0-.02.02-.09.03-.11,0,0,.04-.09.05-.1,0,0,0,0,0-.01,0,0,0,0,0-.01,0,0,.06-.1.06-.1s.06-.1.06-.1c0,0,.07-.1.07-.1,0,0,.07-.09.07-.09,0,0,.08-.11.09-.11,0,0,.09-.11.09-.11,0,0,.09-.11.09-.11,0,0,.1-.11.1-.11s0,0,0,0l.11-.11s.11-.11.11-.11c0,0,.11-.11.11-.11,0,0,.11-.11.12-.11,0,0,0,0,0,0,0,0,0,0,0,0l.7-.52.84-.35.59-.12s0,0,0,0c0,0,0,0,0,0l6.38-.58h0l6.34-.27h0l1.86.1,1.84.35s0,0,0,0h0l1.07.37,1.02.52ZM271.14,15.2s0-.06.02-.09c0-.02.02-.04.04-.06.02-.02.03-.05.05-.06.02-.02.04-.03.06-.05.02-.01.03-.03.05-.04,0,0,0,0,0,0,.02,0,.05-.01.08-.02.02,0,.05-.01.07-.01,0,0,0,0,0,0h17.53s.04,0,.06.01c.01,0,.03,0,.04,0,.09.02.16.07.21.15,0,0,.01,0,.02,0,0,.01,0,.02.01.04.01.02.02.04.03.07,0,.03.01.05.02.08,0,0,0,.02,0,.03,0,0,0,.02,0,.04,0,.03,0,.05-.02.08,0,.02-.02.04-.03.06-.01.02-.03.04-.04.06-.02.02-.04.04-.06.06,0,0-.02.02-.03.03l-3.62,2.19h0l-4.18,2.05h0s0,0,0,0l-1.57.56-1.64.36h0l-1.48.11h-.02l-.96-.19-.13-.06s0,0,0,0c0,0,0,0,0,0l-.99-.71s0,0,0,0h0l-1.44-1.55s0,0,0,0l-1.52-2h0s-.5-.91-.5-.91c0,0,0,0,0,0,0-.02,0-.05-.02-.07,0-.03-.02-.05-.02-.08,0,0,0,0,0,0,0-.02,0-.04.01-.06M290.99,18.08h0s0,0,0,0l1.05-.63h0s.93-.43.93-.43h.01s.15-.05.16-.05c.02,0,.1-.02.12-.03,0,0,.15-.02.16-.02.02,0,.18,0,.2,0h0s.08,0,.12.02c0,0,.11.02.12.03,0,0,.11.03.12.04,0,0,.11.04.12.05,0,0,.11.05.12.06,0,0,.1.06.1.06,0,0,.09.06.1.07,0,0,.09.07.1.08.02.02.03.04.04.06,0,0,.03,0,.04.02l2.77,2.93,3.19,3.5h0s3.58,4.13,3.58,4.13l9.68,11.54h0s0,0,0,0l1,1.36.84,1.48.46,1.04s0,.01,0,.02c0,0,0,0,0,.01l.21.77.04.42-.06.83-.25.8-.19.38s0,0,0,0c0,0,0,0,0,.02l-.99,1.52-1.13,1.44-.82.9h0s0,0,0,0l-2.11,2h0s-2.15,1.72-2.15,1.72h0s0,0,0,0l-2.35,1.55h0s-2.71,1.5-2.71,1.5l-5.27,2.46s0,0,0,0c0,0,0,0,0,0l-.58.18-.64.08-.64-.05-.63-.17s0,0-.01,0c0,0-.01,0-.02,0l-.57-.28-.54-.38-.47-.47-.39-.54s0,0,0-.01c0,0,0,0,0,0l-3.23-5.81-1.72-3.18-1.86-3.27-1.74-2.92h0s-1.25-1.92-1.25-1.92h0s-3.46-5.26-3.46-5.26t0,0h0s-1.31-2.37-1.31-2.37l-.67-1.48s0,0,0,0t0,0l-.57-1.76-.21-1.1s0,0,0-.02c0,0,0,0,0,0l-.03-.53.07-.56.18-.53.28-.49s0,0,.01-.01h0s.87-.92.87-.92c0,0,0,0,0,0h0s1.73-1.28,1.73-1.28h0l2.06-1.35h0s2.1-1.2,2.1-1.2h0s1.1-.63,1.1-.63l1.32-.86,1.32-.92,1.09-.85,1.03-.77ZM298.99,14.86h18.84s.05,0,.07.01c0,0,.02,0,.03,0,.09.02.16.08.21.15,0,0,.01,0,.02,0l1.63,2.51,2.67,3.58.95,1.15h0l4.04,4.49.6.62,2.07,2.16,1.75,1.89h0l1.48,1.65s0,0,0,0c0,0,0,0,0,0,0,0,.06.07.06.08,0,0,.05.09.06.1,0,.02.05.11.05.13,0,0,.02.09.02.1h0s.02.07.02.11l-.09.58-.18.38-.27.32-.17.13s0,0,0,0c0,0,0,0-.01.01l-5.13,3.39s0,0,0,0l-5.08,3.15h0s0,0,0,0l-.75.35-.83.21-.57.05h-.03l-.7-.06-.72-.21-.66-.35-.58-.48s0,0,0,0c0,0,0,0,0,0l-8.01-8.48-7.72-8.59s0,0,0,0c0,0,0,0,0,0l-.48-.65-.39-.75-.26-.81-.12-.84h0,0s0,0,0,0c0-.05,0-.09.01-.13h-.03.03s.03-.08.06-.11h-.1s.08-.03.08-.03c-.03-.02-.04-.06-.06-.08h-.05l.04-.02s-.06-.06-.07-.09h0s0,0,0,0l-.29-.88-.39-1.01-.45-1.01h0s-.47-1.05-.47-1.05h0l-.4-1.05h0s-.03-.07-.03-.08c0,0,0,0,0,0-.02-.05-.03-.1-.03-.16,0-.22.18-.39.39-.39M324.74,14.86h32.66s0,0,0,0c0,0,.02,0,.02,0,.1,0,.18.05.25.12t0,0s0,0,0,0c.06.07.1.16.1.25,0,0,0,0,0,.01s0,0,0,.02c0,.1-.05.18-.12.25h0s-2.72,2.41-2.72,2.41h0l-7.32,6.28h0s-3.84,3.07-3.84,3.07h0s0,0,0,0l-2.48,1.65s0,0,0,0c0,0,0,0,0,0l-.86.36-.94.14h-.03l-.79-.12-.46-.19s0,0,0,0,0,0,0,0l-1.48-.97h0s-1.98-1.7-1.98-1.7h0s-2.91-2.83-2.91-2.83h0s-2.39-2.48-2.39-2.48l-2.43-2.68-2.13-2.49h0s0,0,0,0l-.05-.06s-.1-.12-.1-.13l.07-.08s.02-.05.03-.08h-.05s-.04,0-.06,0l-.1.05-.1-.13h0c-.08-.08-.14-.18-.14-.3,0-.22.18-.39.39-.39M358.56,22.03h0s1.03-.59,1.03-.59h0s.96-.42.96-.42h.01s.17-.06.17-.06c0,0,.1-.02.1-.03,0,0,.1-.02.11-.02,0,0,.09-.02.1-.02,0,0,.1,0,.1,0,0,0,.09,0,.1,0h.01s.02,0,.03,0c.02,0,.04,0,.06,0l.73.07.75.24.67.38.58.52s0,0,0,0c0,0,0,0,0,0l8.58,9.66,5.45,6.45,3.18,3.95,3.64,4.78,3.48,4.89s0,0,0,0l2.37,3.67,1.32,2.27h0s1.31,2.6,1.31,2.6l1.1,2.7h0s0,0,0,0l.67,2.2.45,2.26h0s0,.01,0,.02l.07.86-.04.89-.14.87-.25.85s0,0,0,0c0,0,0,0,0,.02l-.36.73-.54.66-.43.36s0,0,0,0c0,0,0,0,0,0l-6.4,4.43-6.4,4.14s0,0,0,0l-2.74,1.52-1.71.8s0,0,0,0l-1.33.53h0s-.1.04-.11.04-.1.03-.11.03c0,0-.1.02-.1.02,0,0-.11.02-.11.02,0,0-.1.02-.1.02,0,0-.11.01-.11.01,0,0-.1,0-.11,0h-.01s-.04,0-.06,0c-.01,0-.02.01-.03.01h0s-.17,0-.18,0c0,0-.1-.01-.11-.01-.01,0-.1-.02-.12-.03,0,0-.09-.03-.1-.03,0,0-.15-.06-.16-.06,0,0-.08-.04-.09-.05,0,0,0,0,0,0,0,0,0,0,0,0l-.73-.52s0,0,0,0c0,0,0,0,0,0l-.76-.69h0l-2.97-2.84s0,0,0,0l-3.49-3.36-3.94-3.81-5.07-4.79-4.05-3.57-3.47-2.75-3.28-2.24-7.1-4.52s0,0,0,0l-4.6-3.22h0l-2.99-2.43s0,0,0,0c0,0,0,0-.01,0l-.42-.5-.26-.64-.06-.45s0,0,0-.02c0,0,0-.01,0-.02v-.08s.02-.03.02-.04l.12-.59.11-.23s0,0,0,0c0,0,0,0,0,0l.86-1.28s0,0,0,0l1.24-1.52s0,0,0,0l1.58-1.67,3.43-3.21,6.23-5.37h0s6.97-5.83,6.97-5.83h0s6.49-5.23,6.49-5.23c0,0,0,0,0,0l.98-.69M366.28,17.55s0-.15,0-.16c0-.01.01-.09.01-.1,0-.01.02-.09.02-.1,0,0,.04-.15.05-.16,0-.01.04-.09.04-.1,0-.01.02-.02.02-.03,0-.01,0-.03,0-.04l.55-1s0,0,0,0l.51-.81s.02-.02.03-.03c.02-.02.03-.04.05-.05s.04-.03.06-.04c.02-.01.04-.02.07-.03.03,0,.05-.01.08-.02.01,0,.02,0,.04,0h39.79s.03,0,.04,0c.03,0,.06,0,.08.02.02,0,.04.02.06.03.02.01.04.03.06.05.02.02.04.04.05.06.01.01.03.02.04.04l2.45,4.4,1.69,3.13,1.5,2.74h0s1.3,2.34,1.3,2.34c.02.04.03.08.04.12h.03s-.02,0-.02,0c0,.04,0,.08,0,.12l.09-.04-.08.08s.07.04.1.05l.06-.03-.04.04s.08.02.11.06c0,0,.09.12.09.13,0,0,.09.13.09.13,0,0,.08.13.08.13,0,0,.08.14.08.14h0s1.48,2.67,1.48,2.67l1.71,3.13,1.93,3.59h0l4.95,9.25s0,.02,0,.03c0,.02.01.05.02.07,0,.03.01.05.01.08,0,0,0,.02,0,.03l-.33,5.2h0s-.27,2.68-.27,2.68l-.46,2.66s0,0,0,0h0s-.9,3.61-.9,3.61l-.66,2.13s0,0,0,0h0s-1.86,4.95-1.86,4.95c0,0,0,0,0,0,0,0,0,.01,0,.02l-.27.43-.43.37-.52.22-.56.05h-.03l-.8-.05-2.89-.11h-.01l-3.45-.12-3.86-.13-9.87-.3c-.06,0-.12-.02-.17-.05-.02,0-.03-.02-.04-.03-.05-.03-.08-.07-.11-.11,0,0-.01-.01-.02-.02l-5.34-10.62h0s-3.12-5.97-3.12-5.97l-2.72-4.65h0s-3.12-4.66-3.12-4.66l-4.43-6.06h0l-6.15-8.27-3.91-5.51h0l-2.59-3.93h0s0-.01,0-.01l-.35-.78-.14-.87h0v-.02M409.94,14.86h29.73c.1,0,.2.05.27.12,0,0,0,0,0,0,.07.07.11.16.11.27h0c0,.11-.05.21-.11.28h0s-.82.81-.82.81h0l-3.06,3.07-3.52,3.64h0s-4.09,4.21-4.09,4.21l-3.06,2.95h0l-2.33,2.05s0,0,0,0c0,0,0,0,0,0l-.53.31-.63.12h-.04l-.6-.08-.59-.26-.34-.26s0,0,0,0c0,0,0,0,0,0l-1.81-1.97s0,0,0,0h0s-2.15-3.06-2.15-3.06h0s0,0,0,0l-2.55-4.32s0,0,0,0l-2.33-4.14-1.72-2.94s0,0,0,0c-.01-.02-.02-.05-.03-.07,0,0-.02-.02-.02-.03h0s0,0,0,0c-.06-.07-.1-.16-.1-.25,0-.22.18-.39.39-.39M434.59,95.58s0,0,0,0l-.45.43-.55.37-.6.27-.64.17h-.03s0,0,0,0l-.59.04-.63-.07-.6-.19-.55-.31s0,0-.01,0c0,0,0,0,0,0l-1.39-1.07-1.27-1.23h0s0,0,0,0l-1.4-1.67-1.25-1.8s0,0,0,0c0,0,0,0,0,0l-1.45-2.58-.76-1.61h0s0,0,0,0l-.78-1.99h0s-.43-1.7-.43-1.7h0s-.17-1.77-.17-1.77h0s0-.57,0-.57l.05-1.7h0s.29-2.52.29-2.52h0s.59-2.3.59-2.3h0s1.09-2.75,1.09-2.75t0,0h0s2.04-4.3,2.04-4.3h0s2.86-5.46,2.86-5.46h0s1.79-2.87,1.79-2.87l.66-.92h0s1.57-1.82,1.57-1.82l.58-.56s0,0,.01,0c0,0,0,0,0,0l.41-.31.49-.25.8-.2.28-.02h.03l1.41.06,1.41.24.91.26h0s0,0,0,0l6.1,2.21h0l6.01,2.58s0,0,0,0,0,0,0,0l.51.3.48.41.39.49.29.56s0,0,0,.02c0,0,0,0,0,.01l.17.65.02.46-.12.69s0,0,0,0h0s-1.83,5.66-1.83,5.66h0s-2.18,5.93-2.18,5.93h0s-2.27,5.18-2.27,5.18h0s-1.28,2.42-1.28,2.42l-1.46,2.31s0,0,0,0h0s-3.64,4.96-3.64,4.96l-.55.69h0s-4.36,5.2-4.36,5.2c0,0,0,0,0,0M369.21,163.37h0l-2.86-3.4-2.87-3.28h0s0,0,0,0l-.79-1.16-.37-.78s0,0,0-.02c0,0,0,0,0,0l-.19-.82v-.22s.06-.66.06-.66c0,0,0,0,0-.01h0s.4-1.14.4-1.14l.37-.64h0s.64-.73.64-.73c0,0,0,0,0,0l1.05-.85h0s0,0,0,0l1.26-.87h0l1.31-.76s0,0,0,0l1.82-.85h0l1.63-.52h0l1.76-.27h0l2.22-.09h0l4.17.21h0l5.21.67h0l4.96.89h0s2.32.64,2.32.64l.76.29s0,0,0,0l1.82.9.58.36s0,0,0,0h0l3.32,2.35h0l4.19,3.32h0s5.26,4.48,5.26,4.48l2.92,2.37h0l4.34,3.21,4.84,3.4h0l4.67,3.1,6.02,3.93s0,0,0,0l3.25,2.34s0,0,0,0h0l1.94,1.73s0,0,0,0t0,0l.76.96.36.66h0s0,0,0,0l.6,1.46h0s0,0,0,.01l.2,1.09h0v.15l-.13,1.02h0s-.52,1.8-.52,1.8h0s-.66,1.82-.66,1.82l-.8,1.77-.93,1.71-1.05,1.63s0,0,0,0h0s-1.32,1.81-1.32,1.81l-1.41,1.76-1.49,1.69-1.57,1.62h0s-2.24,2.06-2.24,2.06l-2.38,1.9-1.66,1.18h0s0,0,0,0l-.51.31-.57.27-.59.21-.61.15-.63.08-.63.02-.63-.04-.62-.11s0,0,0,0h-.02l-1.63-.43-1.62-.53-1.58-.63-1.54-.73h0s0,0,0,0l-3.83-2.11-3.71-2.33s0,0,0,0h0l-4.15-2.93-4-3.14h0s0,0,0,0l-4.19-3.62-4.05-3.79s0,0,0,0l-2.58-2.64h0s-2.03-2.4-2.03-2.4h0s-1.73-2.46-1.73-2.46h0s-1.63-2.8-1.63-2.8h0s-2.73-4.78-2.73-4.78h0s-2.97-4.61-2.97-4.61h0l-3.02-4.17ZM230.87,180.71l-2.29,1.78s0,0,0,0c0,0,0,0,0,0l-1.59,1.04-1.68.9-1.16.52h0s0,0,0,0l-1.99.68-1.23.3h0l-3.98.57h0l-3.35.14h-.48s-.01,0-.01,0l-1.35-.13-1.33-.34h0s0,0,0,0l-1.29-.57s0,0,0,0h0l-.74-.63-.08-.11s0,0,0,0h0s-.54-1.12-.54-1.12h0s0,0,0,0l-.52-2.01-.37-1.55-.47-1.86h0l-.49-1.86s0,0,0,0h0l-.43-1.55s0,0,0,0h0s-.48-2.21-.48-2.21l-.15-1.35h0s-.18-5.2-.18-5.2h0s.19-5.2.19-5.2h0s.31-2.25.31-2.25l.32-1.32s0,0,0,0h0s.3-.79.3-.79l.44-.73.36-.44s0,0,0,0,0,0,0,0l1.91-1.77.3-.23h0s1.98-1.31,1.98-1.31l.7-.38s0,0,0,0t0,0l1.59-.65,1.01-.26h0s0,0,0,0l1.81-.23.74-.02h.37s0,0,0,0,0,0,0,0l1.24.16,1.21.4s0,0,0,0c0,0,0,0,0,0l1.28.69,1.18.87h0s0,0,0,0l3.17,2.99h0s0,0,0,0l4.06,4.44h0l4.11,5.02h0s3.61,4.77,3.61,4.77h0s0,0,0,.01l.34.61.21.69.05.49s0,0,0,.01,0,0,0,.02l-.06.8-.19.81-.32.77-.44.7s0,0,0,0c0,0,0,0,0,0l-1.66,2.04-1.81,1.92h0s0,0,0,0l-2.14,1.95ZM203.93,147.52l-.36-.47s0,0,0-.01c0,0,0,0,0,0l-.62-1.56h0s-.66-2.49-.66-2.49h0s-.82-4.06-.82-4.06l-.33-1.65-.4-1.89-.41-1.83h0s-.35-1.46-.35-1.46l-.51-2.36-.55-3.21h0s-.5-3.48-.5-3.48h0s-.38-3.27-.38-3.27c0,0,0,0,0,0,0,0,0,0,0,0,0,0,0-.15,0-.16s0-.09,0-.1c0,0,.01-.09.02-.1,0-.02.02-.1.03-.12,0,0,.05-.14.05-.15,0,0,.04-.08.04-.09,0,0,0,0,0,0s0,0,0,0l.52-.84.74-.93h0s.89-.89.89-.89h0s0,0,0,0l1.81-1.39.28-.18h0s3.28-1.91,3.28-1.91h0l4.32-2.2,5.46-2.53,1.41-.57h0l1.93-.67,2.1-.66,1.96-.55,2.91-.73s0,0,0,0l1.22-.15h.02s.22.02.24.02c0,0,.11.02.12.02,0,0,.11.03.12.03,0,0,.11.04.12.04,0,0,.1.05.11.05,0,0,.1.05.11.06.01,0,.02.02.04.04.02,0,.04.01.06.03l.76.7s0,0,0,0c0,0,0,0,0,0l.57,1.03h0s2.06,5.46,2.06,5.46h0l2.35,6.39,2.62,7.36,4.12,11.87h0s1.62,5.2,1.62,5.2h0s.68,3.14.68,3.14l.07.46h0s.3,3.79.3,3.79h0s0,1.57,0,1.57l-.03,1.57h0s-.22,2.03-.22,2.03h0s-.53,1.82-.53,1.82h0s0,0,0,0l-1.01,2.28s0,0,0,0h0s-.89,1.66-.89,1.66c0,0,0,0,0,0h0s-.84,1.24-.84,1.24c0,0,0,0,0,0h0s-.79.83-.79.83c0,0,0,0,0,0,0,0,0,0,0,0s-.08.06-.08.07c0,0-.09.07-.11.07,0,0-.1.06-.11.06,0,0-.09.05-.1.05s-.1.04-.11.05c-.01,0-.11.04-.12.04,0,0-.1.03-.11.03-.03,0-.05,0-.07,0-.02,0-.04.02-.06.02l-.51.03-.54-.07-.52-.18-.47-.27s0,0-.01,0c0,0,0,0,0,0l-2.48-2.01-.34-.31h0s0,0,0,0l-2.4-2.48-.75-.88s0,0,0,0h0s-2.73-3.59-2.73-3.59l-.37-.53h0s-3.59-5.04-3.59-5.04l-1.4-1.67-.92-.91-.91-.71-1.01-.54-1.02-.31-1.04-.09-1.2.13-1.81.43-1.99.61h0l-1.88.71-1.79.7h0l-1.65.55h0l-1.38.37h-.02s-.15.03-.15.03c-.02,0-.09,0-.12,0s-.1,0-.11,0c0,0-.15-.02-.15-.02,0,0-.09-.02-.1-.02,0,0-.09-.03-.1-.03,0,0,0,0-.02,0,0,0,0,0-.02,0l-.47-.29ZM123.1,140.21l-2.8,1.53h0s0,0,0,0l-2.92,1.37-3,1.19h0l-3.94,1.25-1.33.34h-.01s0,0,0,0l-.67.09-.72-.06-.69-.2-.63-.34s0-.01-.02-.02c0,0,0,0,0,0,0,0-.13-.1-.13-.1,0,0-.07-.06-.08-.07,0,0-.11-.11-.11-.12,0,0-.07-.08-.08-.09,0,0-.09-.12-.09-.13h0s0,0,0,0l-1.36-2.02-1.57-2.42-1.73-2.77-6.45-10.15-2.15-3.07-2.33-2.93-2.12-2.31-2.29-2.12-3.59-2.87-2.24-1.62-3.5-2.47s0,0,0,0h0l-1.26-1.14s0,0,0,0c0,0,0,0,0,0l-.39-.65-.11-.46s0,0,0-.02c0,0,0,0,0,0l-.02-.31.12-1.01s0,0,0,0h0s.34-.97.34-.97c0,0,0,0,0,0l.62-1.28h0s.76-1.39.76-1.39h0s.8-1.29.8-1.29c0,0,0,0,0,0h0s2.87-3.97,2.87-3.97h0s3.34-4.01,3.34-4.01h0s3.19-3.39,3.19-3.39c0,0,0,0,0,0,0,0,0,0,0,0l.96-.82,1.09-.66h0s1.37-.54,1.37-.54c0,0,0,0,0,0,0,0,0,0,0,0l1.06-.15h.16s0,0,0,0h0l1.49.23h0s0,0,0,0l2.83.78,5.5,1.73,7.5,2.58,7.52,2.69h0l2,.96s0,0,0,0c0,0,0,0,0,0l.76.56.66.71.36.53s0,0,0,0t0,0l1.29,2.48.37.86h0s0,0,0,0l1.23,3.39.34,1.15h0s1.39,5.67,1.39,5.67h0s.78,3.53.78,3.53l.92,3.92.92,3.71h0l.77,2.83,1.55,5.76h0s0,0,0,0l.16,1.15v.3l-.09.89s0,0,0,0v.02l-.23.74-.42.68-.37.39s0,0,0,0c0,0,0,0,0,0l-2.88,2.22h0s-2.69,1.71-2.69,1.71ZM180.2,52.76h0v.02l-.18,1.23-.35,1.21-.32.77s0,0,0,0h0s-1.68,3.1-1.68,3.1l-.63,1h0s0,0,0,0l-2.34,3.35-1.51,1.93s0,0,0,0h0s-2.61,2.97-2.61,2.97l-1.67,1.69s0,0,0,0h0s-2.79,2.49-2.79,2.49l-1.77,1.39h0s-2.28,1.57-2.28,1.57l-2.4,1.39h0s0,0,0,0l-1.96.97h0l-1.56.6s0,0,0,0h0l-1.26.28s0,0-.01,0h0l-.39.03-.68-.08s0,0,0,0c0,0,0,0-.01,0l-1.26-.4-1.2-.58-.75-.48s0,0,0,0t0,0l-5.55-4.21h0s-5.53-4.6-5.53-4.6c0,0,0,0,0-.01,0,0,0,0-.02,0l-.3-.35-.21-.48-.06-.52.1-.52s0,0,0-.02c0,0,0-.01,0-.02,0,0,.06-.13.06-.14,0-.01.05-.09.06-.1,0,0,.08-.11.08-.12,0-.01.06-.07.07-.09,0,0,.1-.1.11-.11h0s0,0,0,0l1.37-1.2,1.68-1.39h0l1.94-1.51,3.82-3.13.52-.47,2.72-2.66.85-.93,2.21-2.73.67-.94,1.75-2.85.51-.99,2.44-4.42s0,0,0,0h0s.68-.98.68-.98l1.1-1.16.3-.26s0,0,0,0,0,0,0,0l.88-.62.98-.49.69-.24s0,0,0,0h0l2.83-.63.96-.13h0l1.59-.09,1.6.11s0,0,0,0h0l.94.21.9.4.55.35s0,0,0,0c0,0,0,0,.01,0l.84.71.75.84.42.61s0,0,0,0c0,0,0,0,0,0l1.96,3.48.26.51h0s1.12,2.57,1.12,2.57l.56,1.59h0s0,0,0,.01l.29,1.18.12,1.23-.02.82ZM122.75,92.06l.34-1.19.07-.16s0,0,0,0h0s1-1.81,1-1.81h0l.7-1.09s0,0,0,0h0s.9-1.31.9-1.31l.94-1.32.84-1.12.72-.98.6-.96.44-.83s.05-.07.08-.1l-.03-.02h.05s.01,0,.02-.01c-.02-.03-.02-.06-.03-.1h-.02s0-.03,0-.05c0-.01,0-.02,0-.03l.1-.88.31-.85s0,0,0,0c0,0,0,0,0,0l1.7-3.06s0,0,0,0l1.9-2.95s0,0,0,0h0s.84-.95.84-.95l.6-.48h0s0,0,0,0l.97-.56s0,0,.01,0c0,0,0,0,0,0,0,0,.09-.04.1-.05,0,0,.09-.04.1-.04,0,0,.1-.03.11-.04,0,0,.1-.02.11-.03.02,0,.2-.03.22-.04,0,0,.11,0,.12,0,.01,0,.03,0,.04,0,.02,0,.04-.01.06,0l.9.17s0,0,0,0h0l1.36.57h0l3.53,1.87h0l4.17,2.69h0l4.05,2.96s0,0,0,0l3.18,2.72s0,0,0,0l2.26,2.4.3.36s0,0,0,0c0,0,0,0,0,0l.53.78.41.87.19.61s0,0,0,.01c0,0,0,0,0,.01l.11.83-.06.87-.14.56h0v.02l-.69,1.64-.54.93s0,0,0,0c0,0,0,0,0,0l-1.04,1.36-.73.74s0,0,0,0c0,0,0,0,0,0l-2.64,2.13h0s0,0,0,0l-2.95,1.82h0s-1.69.76-1.69.76l-1.06.35h0s0,0,0,0l-1.49.3-.92.06h-.36s-2.49-.16-2.49-.16h0l-2.91-.62h0s0,0,0,0l-2.29-.87-.31-.15s0,0,0,0h0l-.79-.33-1.12-.35-1.23-.3-1.13-.2-2.21-.4h0l-2.13-.57h0s-1.82-.67-1.82-.67h0s0,0,0,0l-1.26-.72s0,0,0,0,0,0,0,0l-.57-.63-.13-.26s0,0,0-.01c0,0,0,0,0,0l-.17-.67v-.15s0-.29,0-.29c0,0,0,0,0,0,0,0,0,0,0,0M126.01,112.81l-.4-3.21-.19-3.24h0s-.01-1.02-.01-1.02v-1.02s0,0,0,0h0s.14-1.48.14-1.48c0,0,0,0,0,0h0s.29-1.09.29-1.09c0,0,0,0,0,0h0s.52-.82.52-.82c0,0,0,0,0,0,0,0,0,0,0,0l.88-.76s0,0,0,0,0,0,0,0c0,0,.09-.06.1-.06,0,0,.09-.05.1-.06,0,0,.1-.05.11-.05,0,0,.1-.04.11-.04,0,0,.1-.03.11-.03,0,0,.11-.02.12-.02.02,0,.12-.02.14-.02s.03,0,.04,0c.02,0,.04-.01.06-.01l.97.19h0s1.68.76,1.68.76l1.05.4,1.7.45,1.95.41,1.91.3,2.92.2h.97s2.33-.21,2.33-.21l1.38-.24,2.51-.66,1.46-.51h0s4.71-2.02,4.71-2.02h0s1.6-.76,1.6-.76h0l1.58-.71h0l1.37-.59h0l.82-.3h0s0,0,.01,0l.91-.19.49-.03.48.03.48.07.47.13.45.18.43.22s0,0,.01.01c0,0,.01,0,.02,0l.92.62.86.74.77.83.67.92s0,0,0,0c0,0,0,0,0,0l.91,1.52.83,1.58.74,1.63.65,1.67h0s0,0,0,0l2.35,6.95,1.29,4.2s0,.01,0,.02c0,0,0,0,0,.02l.08.41.02.48-.06.48-.14.46-.21.43-.28.39-.35.34-.4.27s0,0-.01,0c0,0,0,0-.02.01l-6.75,3.59-4.1,2.04h0l-5.55,2.55-5.65,2.31h0s-1.75.59-1.75.59l-1.81.43-1.84.27-1.86.11h-.01l-1.57-.12-.93-.21s0,0,0,0h0l-2.98-1.09s0,0,0,0h0l-2.48-1.29-.34-.21s0,0,0,0c0,0,0,0,0,0l-1.29-.97-.69-.69s0,0,0,0,0,0,0,0l-1.03-1.29-.89-1.42-.5-1h0s0,0,0,0l-1.09-2.67-.91-2.75h0s0,0,0,0l-.8-3.13-.6-3.18h0s0,0,0,0M198.76,134.01l.65,8.63h0s.26,5.82.26,5.82h0s-.07.91-.07.91l-.25.88-.26.56s0,0,0,0c0,0,0,.01,0,.02l-.29.42-.41.38-.47.29-.52.18s0,0-.01,0,0,0,0,0l-3.18.53-.46.04h0l-1.68.07-1.69-.08h0s0,0,0,0l-3.87-.57h0l-3.59-.91-.51-.16h0s-4.05-1.51-4.05-1.51l-3.85-1.43-1.24-.27-.93-.06h-.3s-1.43.18-1.43.18l-1.37.37-5.48,2.01s0,0,0,0l-1.74.65h0l-1.65.55h0l-1.4.41h0s0,0,0,0l-.17.04s-.1.02-.1.02c0,0-.09.02-.1.02s-.1.01-.11.02c0,0-.18.01-.18.01s-.09,0-.1,0h-.02l-.65-.06-.65-.22-.4-.22h0s0,0,0,0l-1.67-1.34-.22-.21s0,0,0,0c0,0,0,0,0,0l-1.51-1.76-.19-.27h0s0,0,0,0l-.71-1.26-.31-.82s0,0,0,0l-.68-2.29h0s0,0,0-.01l-.11-.9.02-.3s0,0,0-.01h0s.2-.66.2-.66l.24-.35s0,0,0,0,0,0,0,0l1.04-1s0,0,0,0c0,0,0,0,0,0l1.74-1.14h0s2.91-1.42,2.91-1.42h0l4.25-1.84h0l6.4-2.58h0l2.71-1.12,3.32-1.46,3.37-1.55,2.88-1.39,2.7-1.29h0l2.77-1.21h0l2.48-.98h0l1.66-.52,3.12-.77s.05,0,.08,0c.01,0,.02,0,.03,0,.09,0,.18.05.24.11,0,0,.02,0,.02,0l2.37,2.48s0,0,0,0l1.11,1.34.57.89s0,0,0,0c0,0,0,0,0,0l.67,1.47.27.94h0s0,0,0,.01l.52,3.25.04.47h0M193.14,76.88h0l1.81,3.74,1.64,3.35h0l1.14,2.24h0s2.13,4.25,2.13,4.25h0s1.92,4.19,1.92,4.19l1.52,3.66h0s.77,2.43.77,2.43h0s0,0,0,0l.19,1.25h0s0,.12,0,.12l-.16.9s0,0,0,0h0s-.57.96-.57.96c0,0,0,0,0,0,0,0,0,0,0,0l-1.19,1.28h0s-1.53,1.36-1.53,1.36l-1,.72s0,0,0,0h0s-4.31,2.71-4.31,2.71h0l-4.66,2.58h0s-3.4,1.56-3.4,1.56l-.5.2h0s0,0,0,0l-1.12.38-1.16.28-1.18.18-1.2.07h-.02l-1.07-.04-1.08-.17-1.05-.3-1.01-.42s0,0,0,0c0,0,0,0,0,0l-1.06-.59-1.02-.7-.95-.79-.87-.88s0,0,0,0c0,0,0,0,0,0l-1.54-1.84-1.43-1.93-.89-1.34h0s-4.03-6.65-4.03-6.65l-3.46-6.26h0s-2.69-5.34-2.69-5.34h0s0,0,0,0l-.42-1.15-.19-1.23s0,0,0,0,0,0,0,0v-.16s.17-1.07.17-1.07l.06-.17s0,0,0,0h0s.77-1.42.77-1.42c0,0,0,0,0,0h0s1.53-1.85,1.53-1.85h0s3.08-3.18,3.08-3.18l2.49-2.51,2.86-2.88,2.77-2.79,2.21-2.23,1.93-1.91h0l1.9-1.79h0s1.65-1.49,1.65-1.49h0s.95-.73.95-.73h0s1.11-.67,1.11-.67c0,0,0,0,.01,0,0,0,0,0,0,0,.01,0,.09-.04.1-.05,0,0,.09-.03.1-.03.01,0,.1-.03.11-.03.02,0,.18-.02.21-.02.04,0,.11,0,.12,0s.09.02.1.02c.02,0,.03.01.04.02.02,0,.05,0,.07,0,0,0,.09.03.1.04,0,0,.09.04.1.05,0,0,.09.05.1.05,0,0,.09.05.09.06s.08.06.09.06c0,0,.08.06.09.07,0,0,.07.07.08.07.01.02.02.04.03.06,0,0,.03,0,.03.01l1.11,1.35h0s0,0,0,0l.9,1.34s0,0,0,0l1.49,2.72,1.68,3.25,1.68,3.45h0s1.72,3.61,1.72,3.61ZM261.67,91.9h0s0,0,0,0l1.11,1.91.98,2,.58,1.37h0s1.59,4.37,1.59,4.37l.84,2.66h0s1.16,4.45,1.16,4.45l.57,2.71h0s1.06,6.42,1.06,6.42l.29,2.15h0s.72,7.05.72,7.05l.07,1.01h0s.05,1.22.05,1.22l-.06,1.84-.23,1.83s0,0,0,0h0s-.28.95-.28.95l-.5.88s0,0-.01,0c0,0,0,0,0,0l-.68.76-.83.62s0,0,0,0c0,0,0,0,0,0l-2.57,1.31-.38.16s0,0,0,0l-7.56,3.07s0,0,0,0l-5.14,1.88s0,0,0,0h0l-1.61.42-1.66.22s-.01,0-.02,0h-.3s-.93-.06-.93-.06l-.91-.22-.3-.1s0,0,0,0,0,0-.01,0l-.82-.41-.77-.54-.46-.42s0,0,0,0c0,0,0,0-.01,0l-.89-1.11-.69-1.26s0,0,0,0h0s-2.1-5.11-2.1-5.11h0s0,0,0,0l-2.36-6.71h0s0,0,0,0l-2.52-8.24-.89-2.9-1-2.97-.95-2.63s0,0,0,0l-.72-1.71h0s-1.35-3.32-1.35-3.32c0,0,0,0,0,0,0,0,0,0,0,0l-.24-1.08-.02-.56.04-.57s0,0,0,0v-.02l.18-.75.34-.72.31-.43s0,0,0,0c0,0,0,0,0,0l1.79-1.85.28-.24h0s2.52-2,2.52-2l2.65-1.83h0l5-2.99,1.71-.93h0s5.69-2.84,5.69-2.84l.83-.38h0s0,0,0,0l.89-.35.93-.26,1.44-.21.48-.02s0,0,0,0,0,0,0,0h0l.76.06.76.21.71.36.63.49s0,0,0,.01,0,0,.01,0l1.13,1.18,1.02,1.29.61.91ZM378.28,99.41s0,0,0,0l2.12,4.11h0s2.86,5.86,2.86,5.86c0,0,0,0,0,0l1.94,4.43h0s1.5,4.13,1.5,4.13l1.42,4.78h0s2.3,8.52,2.3,8.52c0,0,0,0,0,0l.86,3.44s0,0,0,0l.4,2.14h0s.15,1.93.15,1.93h0v.16l-.06,1.12s0,0,0,0h0s-.27.76-.27.76c0,.03-.02.06-.03.08l-.02.06h0s0,.01,0,.02l-.57.55s-.04.04-.06.06l-.05.05s0,0,0,0c0,0,0,0,0,0l-1.13.57s0,0,0,0h0l-1.39.4h0l-2.81.39-3.45.35h0l-3.84.26-6.48.5h0l-4.27.61-.6.12h0l-3.89.97-.54.17h0l-5.03,1.79h0l-2.56.96h0s-1.39.32-1.39.32h-.03s-.01,0-.02,0h0l-.41.02-.77-.1h-.01l-1.51-.49h0l-1.21-.58s0,0,0,0l-1.76-1.03s0,0,0,0l-1.94-1.24h0s-1.87-1.3-1.87-1.3c0,0,0,0,0,0l-2.85-2.28-.39-.35s0,0,0,0c0,0,0,0,0,0l-.35-.39-.28-.49-.17-.54-.06-.56h0v-.03l.1-.9.27-.9.27-.56s0,0,0,0c0,0,0,0,0,0l3.54-6.06,4.72-7.58,4.31-6.45h0l4.18-5.73s0,0,0,0l4.34-5.39h0s4.63-5.39,4.63-5.39l3.82-4.23h0s3.17-3.35,3.17-3.35c0,0,0,0,0,0,0,0,0,0,0,0l.46-.32.47-.1s.05-.01.07-.02h.05s0,0,.02,0c0,0,.02,0,.02,0,.02,0,.09,0,.11,0,0,0,.11.03.12.03.02,0,.08.04.11.05.01,0,.1.07.11.08.02.01.07.06.08.08,0,0,.07.09.08.11,0,0,0,0,0,.01,0,0,0,0,0,0l1.66,2.97h0s1.87,3.46,1.87,3.46ZM418.03,82.92l.67,1.92.29.61,1.17,2,.44.64,3.02,3.96,1.19,1.55,1.13,1.62h0l.94,1.46h0s.53,1.02.53,1.02h0s0,0,0,0l.42,1.2h0s0,.01,0,.02l.06.47-.05.5s0,0,0,0h0s-.41.97-.41.97h0s-1.01,1.43-1.01,1.43h0s-.84,1.12-.84,1.12t0,0l-1.09,1.46-1.15,1.55-1.03,1.4h0s-2.47,3.16-2.47,3.16h0s-2.58,2.9-2.58,2.9c0,0,0,0,0,0l-2.41,2.38h0s0,0,0,0l-1.69,1.31-.26.17h0s0,0,0,0l-1.2.63h0s0,0,0,0l-2.49,1.03h0l-2.98,1.16-3.18,1.15h0s0,0,0,0l-5.83,1.84-.84.23h-.02s0,0,0,0l-.69.11-.74-.06-.71-.22-.64-.38s0,0-.02-.01c0,0,0,0,0,0l-.61-.53-.56-.62-.48-.68-.4-.73s0,0,0,0t0,0l-5.6-12.04-2.41-5.34-2.66-5.97-2.7-6.09s0,0,0,0c0,0-.05-.11-.05-.12,0,0-.04-.12-.04-.13,0,0-.03-.12-.03-.13,0,0-.02-.13-.02-.14h0s0-.11,0-.12c0-.03.03-.13.04-.16,0-.01.03-.03.04-.04,0-.02,0-.04.01-.05l.61-.79.7-.89.83-1.04s0,0,0,0l1.96-2.18,1.28-1.22s0,0,0,0h0s3.09-2.52,3.09-2.52l1.08-.78h0s3.54-2.28,3.54-2.28l1.22-.7s0,0,0,0h0l3.74-1.88,1.28-.56h0s3.57-1.34,3.57-1.34h0l4.35-1.33h0l4.12-1.07h0s0,0,0,0l2.05-.29h.3s0,0,0,0,0,0,0,0l.76.06.76.21.47.22h0s.01.01.02.01l.85.62.7.81h0s0,.01,0,.02l.66,1.17.47,1.27h0s0,0,0,0l.8,3.6.74,3.45ZM320.71,83.16l.87-5.99.09-.86.28-4.37.02-1.46-.2-6.92-.31-5.67h0s-.02-.8-.02-.8l.07-1.33s0,0,0,0h0s.26-1.06.26-1.06l.16-.34s0,0,0,0c0,0,0,0,0,0l.92-1.27s0,0,0,0c0,0,0,0,0,0l.63-.61h0s.47-.4.47-.4c0,0,.08-.06.08-.06l.08-.06s0,0,0,0c0,0,0,0,0,0l.13-.1s.14-.1.14-.1c0,0,.14-.09.14-.09,0,0,.14-.09.15-.09h0s.09-.05.1-.06c.02,0,.11-.04.13-.05.02,0,.08-.02.1-.02.02,0,.12-.02.14-.02,0,0,.01,0,.02,0s.01,0,.02,0h0l.82.13.47.21s0,0,0,0c0,0,0,0,0,0l8.49,5.18,7.77,4.84h0s4.49,3.07,4.49,3.07h0s2.92,2.31,2.92,2.31l1.67,1.49h0s7.62,7.26,7.62,7.26h0l7.67,7.58h0s0,0,0,0l1.1,1.28.91,1.43s0,0,0,0h0s.51,1.08.51,1.08c0,0,0,0,0,0,0,.01.04.09.04.1,0,0,.04.16.04.16,0,0,.02.09.02.1,0,0,0,.09,0,.1v.1s0,.09,0,.1h-.01s0,.09,0,.13c0,0-.04.15-.04.16,0,0-.03.08-.04.09,0,.02-.05.1-.06.12,0,0-.05.07-.05.08,0,0-.1.13-.1.13,0,0-.06.06-.07.07,0,0,0,0,0,0,0,0,0,0,0,0l-.83.68-1.21,1.04-.62.71-7.19,9.19-7.84,10.26-7.79,10.54-5.17,7.01h0s-3.14,3.94-3.14,3.94c0,0,0,0,0,0h0s-2.22,2.35-2.22,2.35c0,0,0,0,0,0,0,0,0,0,0,0l-.81.62-.94.44s0,0-.02,0c0,0,0,0,0,0,0,0-.1.03-.1.03,0,0-.09.03-.1.03,0,0-.1.02-.11.02,0,0-.2.02-.21.03,0,0-.1,0-.1,0s-.07,0-.1,0h0s-.03,0-.05-.01c0,0-.01,0-.02,0h-.03l-1.19-.14h0l-1.37-.29h0s0,0,0,0l-1.38-.42-1.5-.47h0l-1.87-.46-1.9-.39h0l-1.63-.23h0l-1.54-.2h0l-1.55-.25s0,0,0,0l-1.36-.27s0,0,0,0l-.88-.25s0,0,0,0h0l-.97-.53s0,0,0-.01c0,0,0,0-.01,0,0,0-.09-.07-.09-.08,0,0-.08-.08-.09-.09,0,0-.08-.09-.08-.1,0,0-.06-.09-.07-.1,0,0-.06-.1-.06-.11,0,0-.05-.11-.06-.12,0,0-.04-.11-.04-.12,0-.02,0-.05,0-.07,0-.02-.02-.02-.03-.04l-.11-1.04v-.15s0,0,0,0l.19-2.9h0s.23-2.32.23-2.32h0s.45-3.38.45-3.38h0s.55-3.74.55-3.74l.59-3.58.73-4.05.98-5.25h0s1.05-5.52,1.05-5.52h0s.97-4.94.97-4.94h0s2.05-10.83,2.05-10.83h0M319.52,61.07l.14,1.93v.49l-.08,1.46s0,0,0,0h0s-.63,4.65-.63,4.65l-.12.66h0s-.4,2.35-.4,2.35l-.54,3.59-.57,4.03h0s-.52,3.93-.52,3.93l-1.18,8.48-1.2,6.94h0s-1.45,6.66-1.45,6.66c0,0,0,0,0,0l-1.96,7.58-1,3.72h0l-1.02,3.93h0s-.91,3.58-.91,3.58l-.59,2.49h0s-1.09,4.17-1.09,4.17l-.79,2.47s0,0,0,0c0,0,0,0,0,.01l-.36.8-.51.76-.64.65-.75.53s0,0-.01,0c0,0,0,0-.02.01l-.83.39-.91.26-.94.12h-.47s-.47-.03-.47-.03h-.02l-5.82-.85-1.93-.36s0,0,0,0l-2.45-.45h0l-2.62-.44-2.4-.37-1.7-.21h0l-3.23-.44h0l-2.39-.6h0s0,0,0,0l-1.83-.84s0,0,0,0h0l-1.3-1-.17-.17s0,0,0,0c0,0,0,0,0,0l-.62-.82-.27-.56s0,0,0,0c0,0,0,0,0,0l-.5-1.88s0,0,0,0h0l-.35-3.17h0s-.46-7.34-.46-7.34l-.64-8.72h0s-.41-3.1-.41-3.1l-.37-1.83h0l-.53-1.82-.72-1.74-1.25-2.25-.86-1.28-1.99-2.91s0,0,0,0l-1.38-2.4h0s0,0,0,0l-.95-2.21h0s-.65-2.3-.65-2.3h0s-.22-1.01-.22-1.01l-.19-.86-.17-.73s-.03-.08-.05-.13c-.04-.1-.02-.21.04-.3h0s0,0,0,0c0,0,0-.01.01-.02.02-.03.05-.07.08-.1,0,0,.02,0,.02,0,0,0,0-.02.01-.02l1.21-.87s0,0,0,0l1.39-.98,1.66-1.14,3.71-2.33h0l4.2-2.26h0l5.5-2.62,8.02-3.56h0l7.12-3.21,7.23-3.49,6.29-3.21,2.45-1.5.33-.24h0l2.28-1.59h0s0,0,0,0l1.58-.82h0s1.12-.25,1.12-.25h.16s0,0,.01,0h.04s.09,0,.13.03l.74.13.29.13s0,0,0,0c0,0,0,0,.01,0l.76.51.65.68.34.54s0,0,0,.01c0,0,0,0,0,0l.55,1.31.31,1.4h0s0,.01,0,.02M237.8,86.57l.07.7-.02.43s0,0,0,0v.02s-.02.12-.02.13c0,.01-.03.11-.03.12,0,.01-.04.11-.05.12,0,.01-.05.11-.06.12,0,.01-.06.1-.07.11,0,0-.07.09-.07.1,0,0-.08.08-.09.09-.02.01-.04,0-.06.02-.01.02-.01.04-.03.06l-6.26,4.81-2.13,1.54-5.08,3.46-3.12,1.97h0s-7.17,4.17-7.17,4.17h0s0,0,0,0l-.65.27-.73.14h-.37s-.74-.09-.74-.09l-.36-.11s0,0-.02,0c0,0,0,0-.02,0l-.62-.34-.52-.53h0s0,0,0,0l-3.22-4.65-3.27-4.99-2.81-4.68h0s-2.21-4.28-2.21-4.28l-2.98-6.62s0,0,0,0l-2.93-6.83h0s0,0,0,0l-.37-1.22-.09-.77s0,0,0-.01c0,0,0,0,0,0v-.13s0-.09,0-.11c0,0,.02-.13.02-.14,0-.02.02-.09.03-.11,0,0,.04-.12.05-.12t0,0h0s.06-.16.07-.16c0,0,.07-.15.08-.15s.05-.08.05-.09l.08-.13h.02s.02-.06.04-.08l.1-.14s.06-.08.06-.08c0,0,.06-.07.06-.07,0,0,.12-.14.12-.14,0,0,.07-.07.07-.08.01,0,.03-.02.04-.03,0,0,.01-.03.03-.04,0,0,.06-.06.07-.07,0,0,.13-.12.13-.12,0,0,.07-.06.08-.06,0,0,.07-.06.08-.06s.14-.1.15-.11h.01s.04-.04.07-.06l2.19-1.2h0l3.19-1.27h0l3.2-1.03h0s1.53-.29,1.53-.29l.52-.03,1.06-.24,1.3-.78,1.8-1.51,2.87-2.78,3.58-3.43h0s1.24-.98,1.24-.98l.82-.5s0,0,0,0c0,0,0,0,0,0l.82-.32.9-.1h0s0,0,0,0,0,0,0,0l.91.13.88.33s0,0,0,0c0,0,0,0,0,0l.96.57.9.7.81.81.7.91h0s0,0,0,0l2.91,4.48,1.63,2.76s0,0,0,0l2.36,4.34,2.17,4.44s0,0,0,0l1.95,4.48,1.75,4.57h0s1.09,3.19,1.09,3.19c0,0,0,0,0,0l.45,1.75s0,0,0,0h0M147.45,40.82l.69.34.09.02,2.3.27h0l2.17.32s0,0,0,0h0l.91.33.5.31s0,0,0,.01c0,0,0,0,.01,0l.48.49.33.63h0s0,.01,0,.02l.27,1.35v.2s0,0,0,.01c0,0,0,0,0,.02l-.04.57-.15.59-.26.55-.35.5s0,0-.01,0h0s-3.29,3.51-3.29,3.51h0l-3.04,2.74-1.06.86s0,0,0,0h0s-2.6,1.9-2.6,1.9l-1.63,1.04s0,0,0,0l-3.74,2.04-.55.26h0s0,0,0,0l-1.16.46-1.22.32-.83.13h-.01s0,0,0,0l-.76.05-1.16-.06-1.15-.23s0,0,0,0h0l-2.3-.79-1.34-.6s0,0,0,0t0,0l-2.19-1.21-2.07-1.42s0,0,0,0c0,0,0,0,0,0l-1.22-1.05-1.09-1.2-.65-.87h0s0,0,0-.01l-.79-1.34-.63-1.44-.32-1h0s0-.01,0-.01l-.37-1.69-.22-1.72-.06-1.15h0s-.07-3.24-.07-3.24c0,0,0,0,0-.01,0-.03,0-.05.01-.08,0-.03,0-.05.02-.07,0-.02.02-.04.04-.06.02-.03.03-.05.05-.07.01-.01.03-.02.05-.04.03-.02.05-.04.08-.05,0,0,0,0,0,0l2.64-1.01,5.64-2.12,6.34-2.32h0l6.01-2.16,1.72-.53h0s0,0,0,0l.94-.13.65.03.95.23s0,0,0,0h.01l.95.44.89.6.54.47s0,0,0,0,0,0,.01,0l.64.75.52.87.26.62s0,0,0,.02c0,0,0,0,0,.01l.13.54.03.3-.04.6-.16.57-.12.28s0,0,0,0c0,0,0,0,0,0l-.37,1.11v.08s.14.29.14.29ZM86.24,74.8l.25-1.61.17-.53s0,0,0,0c0,0,0,0,0,0l.42-.86.62-.77s0,0,0,0c0,0,0,0,0,0l1.07-.91,1.2-.76s0,0,0,0h0l7.59-3.98,7.52-3.74h0l3.33-1.43,1.14-.41h0s1.34-.41,1.34-.41l1.51-.34,1.45-.24h0l1.16-.09s0,0,0,0c0,0,0,0,0,0l1.41.06,1.88.3.46.12s0,0,0,0c0,0,0,0,0,0l2.91.92,1.71.67s0,0,0,0h0l3.25,1.54,1.05.58h0s0,0,0,0l1.08.72.99.85.59.64s0,0,0,0c0,0,0,0,0,0l.39.59.24.7.06.49s0,0,0,0c0,0,0,0,0,.01v.3s-.19,1.87-.19,1.87l-.06.3h0s-.78,2.61-.78,2.61l-.33.84h0s-2.13,4.88-2.13,4.88l-1.16,2.55-.98,2.28h0s-.78,1.94-.78,1.94c-.02.04-.05.06-.07.1l.04.02h-.05s-.04.05-.07.07l.1.04h-.1s.05.06.06.1h.03s-.02,0-.02,0c0,.04.02.07.02.11h0s0,.11,0,.11c0,.02,0,.08-.01.1,0,0-.03.1-.03.11,0,.02-.05.11-.05.13h-.01s-.01.06-.03.09c0,0-.06.09-.06.09,0,.01-.08.1-.09.11,0,0-.08.09-.09.09,0,.01-.1.09-.11.09,0,0,0,0,0,0,0,0,0,0,0,0,0,0-.1.07-.11.07,0,0-.11.06-.12.07-.01,0-.08.04-.09.04,0,0-.11.05-.12.05v-.03s-.05.05-.08.06c0,0-.12.03-.13.03,0,0-.13.03-.14.03,0,0-.13.02-.14.02,0,0-.14,0-.15,0h-.01s-.08-.04-.13-.05v.06s-.03-.07-.03-.07c-.03-.02-.07-.02-.1-.04v.13s-.04-.11-.04-.11c-.03.04-.05.07-.09.1v.03-.03s-.07.05-.11.06l-.88.36-.97.5-.93.59s0,0,0,0h0s-.83.52-.83.52l-.9.43-.94.33-.97.23h0s0,0,0,0l-1.71.21-1.16.05-1.71-.06h-.03s0,0,0,0h0l-2.13-.26-2.11-.42-1.39-.37h0s0,0,0,0l-4.21-1.39-2.48-.97s0,0,0,0l-4.12-1.85h0s-3.43-1.87-3.43-1.87h0s-2.63-1.8-2.63-1.8t0,0h0l-1.06-.98-.55-.68h0s0,0,0-.01l-.51-.88-.34-.98h0s0-.01,0-.02l-.21-1.65v-.56s0,0,0,0,0,0,0,0M46.63,85.76l.21-3.4h0s.66-3.43.66-3.43h0s0,0,0-.01l.57-1.65.47-.94s0,0,0,0c0,0,0,0,0,0l1.32-2.03.5-.64h0s1.71-1.84,1.71-1.84l.62-.57h0s0,0,0,0l1.82-1.41.65-.42h0s0,0,0,0l1.09-.54,1.18-.36s0,0,0,0t0,0l1.96-.27,1.2-.04h0l4.53.19h0l4.53.52h0l2,.42,1.17.37s0,0,0,0h0l2.91,1.19,1.7.83s0,0,0,0h0l1.88,1.11,1.77,1.3s0,0,0,0t0,0l1.42,1.31,1.25,1.49s0,0,0,0c0,0,0,0,0,0l.74,1.12.61,1.21.33.84h0s0,0,0,0l1.06,3.06v.02s0,.05.01.08c0,.02,0,.05,0,.07,0,.03-.01.05-.02.07,0,.03-.01.06-.03.08,0,0,0,.01,0,.02l-1.96,3.27h0l-2.6,4.03-.92,1.3h0s-3.79,4.91-3.79,4.91l-.56.68h0s-4.3,4.85-4.3,4.85h0s-1.47,1.39-1.47,1.39l-1.64,1.19h0s-2.1,1.35-2.1,1.35h0c-.06.04-.12.05-.18.05,0,0-.02,0-.03,0-.06,0-.12-.01-.17-.04l-4.18-2.05s0,0,0,0l-1.97-1.05-1.9-1.18-1.22-.86s0,0,0,0c0,0,0,0,0,0l-2.38-1.91-2.22-2.11h0s0,0,0,0l-1.91-2.17-1.73-2.33h0s0,0,0,0l-.98-1.63-.82-1.73-.45-1.19h0s0-.01,0-.01l-.31-1.23-.11-1.28s0,0,0,0,0,0,0,0M68.9,144.16l-.32-.94h0l-1.05-2.66-1.24-2.56-1.19-1.97-1.37-1.82-1.51-1.61-1.68-1.42-1.96-1.53s0,0,0,0c0,0,0,0,0,0l-.89-.96s0,0,0,0c0,0,0,0,0,0l-.31-.74-.04-.27s0,0,0-.02c0,0,0,0,0,0v-.3s.07-.93.07-.93t0,0s0,0,0,0l.29-1.05h0s.63-1.61.63-1.61l.8-1.82h0s.88-1.8.88-1.8h0l2.14-3.85h0s1.65-2.38,1.65-2.38l.26-.32s0,0,0,0c0,0,0,0,0,0l1.49-1.5.24-.19s0,0,0,0c0,0,0,0,0,0l.56-.34.66-.21.33-.03h.13s0,0,0,0,0,0,.01,0l1.03.08,1.01.28s0,0,0,0h0l4.12,1.66,4.19,1.93s0,0,0,0l3.07,1.76h0s0,0,0,0l2.51,1.84.79.67h0s2.74,2.62,2.74,2.62l.37.4h0s2.81,3.33,2.81,3.33l.38.49,3.55,4.95h0l5.43,8.3s0,0,0,0l2.13,3.65,1.16,2.25h0s0,0,0,0l1,2.36.48,1.47v.03s0,.02,0,.02l.03.2v.29s-.08.28-.08.28l-.13.26-.19.22-.23.17-.27.11-.28.05h-.05s-.06-.03-.1-.04v.05l-.03-.04s-.06.06-.09.08h0s0,0,0,0h0s-.09.03-.14.03l.02.05-.04-.05s-.09-.02-.14-.04l.06.15-.07-.08s-.04.06-.05.09l.03.06-.04-.04s-.03.08-.06.11h0s0,0,0,0c-.04.03-.09.04-.14.05l.03.05-.05-.04s-.05.03-.07.03c-.03,0-.05-.01-.08-.02l.08.14-.13-.09s-.02.08-.03.13l.04.06-.05-.04s-.01.1-.05.14h-.02s0,0,0,0c-.04.04-.08.07-.12.09l.02.03-.04-.02s-.09.03-.15.03c0,0,0,0,0,0l.1.12-.16-.07c.02.05.02.09.01.15l.05.06-.06-.02c0,.05,0,.1-.03.15h0s0,0,0,0h0s-.64.88-.64.88l-.77.8-.87.68-.95.57h0s0,0,0,0l-4.47,2.08-2.74,1.12h0s-3.79,1.35-3.79,1.35l-3.86,1.15h0s0,0,0,0l-1.32.29-1.35.18-1.36.06-1.34-.05s0,0,0,0h-.05l-.54-.14-.51-.32-.27-.3s0,0,0,0c0,0,0,0,0,0l-2.4-3.51s0,0,0,0l-2.2-3.62h0s0,0,0,0l-.75-1.6-.34-1.01s0,0,0,0l-2.09-6.67ZM70.04,154.81l-.37,1.72-.34,1.01s0,0,0,0l-1.06,2.27-.42.73h0s-2.74,4.27-2.74,4.27h0s-1.53,2.05-1.53,2.05h0s-1.41,1.43-1.41,1.43h0s0,0,0,0l-1.76,1.22s0,0,0,0l-2.69,1.44h0l-4.41,2.01s0,0,0,0h0l-2.57.89-.88.23s0,0,0,0h0l-1.93.33-1.17.08h-.41s-2.44-.13-2.44-.13l-.4-.06h0l-2.85-.6h0s0,0,0,0l-2.48-.89s0,0,0,0l-2.56-1.38h0l-3.15-2.12s0,0,0,0c0,0,0,0,0,0l-1.5-1.19-1.39-1.33-.86-.96s0,0,0,0c0,0,0,0,0,0l-1.22-1.58-1.09-1.68-.65-1.17s0,0,0,0t0,0l-.95-2.03-.81-2.1-.45-1.43h0s0,0,0,0l-.89-3.4-.69-3.46h0s-.57-3.69-.57-3.69h0s-.15-2.26-.15-2.26h0s.2-1.71.2-1.71c0,0,0,0,0,0h0s.58-1.6.58-1.6c0,0,0,0,0,0,0,0,0,0,0,0l.53-.94.63-.91.71-.84.79-.77s0,0,0,0c0,0,0,0,0,0l2.25-1.82,2.4-1.63h0s0,0,0,0l2.52-1.43,2.64-1.23h0s0,0,0,0l1.03-.37,1.08-.28,1.1-.17,1.11-.06h.01l1.46.11h0l2.12.39,2.36.56h0l2.28.66h0l2.31.71h0l2.52.72,2.35.63,1.73.41h0l1.72.48,1.66.7h0s0,0,0,0l1.59.91,1.48,1.1s0,0,0,0h0l1.47,1.37,1.33,1.52h0s0,0,0,0l1.65,2.31.89,1.46s0,0,0,0l1.29,2.4h0s0,0,0,0l.7,1.77h0s.35,1.8.35,1.8h0s.14,2.41.14,2.41h0s0,.4,0,.4l-.19,2.81h0M123.07,176.09l-.46,8.62h0s-.66,7.09-.66,7.09l-.52,4.24h0s-.28,1.77-.28,1.77l-.61,2.62-.82,2.57s0,0,0,0c0,0,0,0,0,0l-.48,1.14-.6,1.1-.7,1.04-.79.97s0,0-.01,0c0,0,0,0,0,0l-.79.76-.91.66-1,.53-1.06.39h0s0,0,0,0l-1.28.27h0s-1.59.17-1.59.17c0,0-.02,0-.03,0h0l-1.63.05-1.45-.08s-.03,0-.05,0l-3.84-.58-.54-.11h0l-7.8-1.76-7.88-1.93h0l-1.76-.57-1.02-.46h0s-1.1-.69-1.1-.69l-.6-.51s0,0,0,0c0,0,0,0,0,0l-1.07-1.24-.31-.46h0s0,0,0,0l-.78-1.53-.2-.54h0s0,0,0,0l-.46-2-.03-.29h0s0,0,0,0-.01-.15-.01-.16c0,0,0-.17,0-.18s0-.09,0-.1c0,0,0-.16,0-.17h.02s0-.06,0-.09l.34-2.96.42-3.46.52-3.94h0s.55-4.2.55-4.2h0,0l.53-4.21.43-3.69h0s.23-2.28.23-2.28l.2-1.71h0s.3-1.59.3-1.59l.35-1.3s0,0,0,0h0s.03-.1.04-.11c0,0,.04-.08.04-.09,0,0,.05-.09.05-.1,0,0,.05-.08.05-.09,0,0,.05-.08.06-.08,0,0,.06-.08.06-.09,0,0,.06-.08.07-.08.01-.02.04-.03.05-.04,0,0,0-.03.02-.04l.63-.49.76-.3h0s0,0,0,0l2.98-.57h0l3.09-.32h0s.53-.01.53-.01l1.59.19h0l.55.07.87-.14,2.51-1.02,3.34-1.81,4.4-2.81,1.81-1.17s0,0,0,0l1.97-1.22s0,0,0,0l1.84-1.1,1.37-.76h0l2.77-1.45s.02,0,.03,0c.02,0,.05-.02.07-.02.03,0,.05,0,.08,0,.02,0,.05,0,.07,0,.03,0,.05,0,.08.02,0,0,.02,0,.03,0l2.65,1.37h0l1.24.74s0,0,0,0h0l1.02.84s0,0,0,0c0,0,0,0,0,0l.78.92s0,0,0,0h0s.54,1.01.54,1.01h0s0,0,0,.01l.43,1.32.3,1.37.11.93h0s0,0,0,0l.36,6.26h0s0,0,0,0l.05,3.84-.07,3.85M126.48,184.93l-.28-15.64-.1-15.75s0,0,0,0,0,0,0,0l.05-.85.15-.87.25-.84.34-.81s0,0,0,0c0,0,0,0,0-.01l.52-.85.67-.78.52-.45s0,0,0,0c0,0,0,0,0,0l1.3-.88,1.42-.71s0,0,0,0h0s1.71-.62,1.71-.62l1.77-.42s0,0,0,0h0l2.45-.3,1.48-.06h.01l2.25.09,2.24.31h0s0,0,0,0l1.47.36,1.43.52.92.42s0,0,0,0h0l1.32.75,1.24.9.78.66s0,0,0,0c0,0,0,0,0,0l1.6,1.62,1.44,1.77s0,0,0,0c0,0,0,0,0,0l1.06,1.6.91,1.7.51,1.18h0s1.97,5.42,1.97,5.42l.58,1.83h0s1.55,5.48,1.55,5.48l.81,3.32h0s1.48,7.19,1.48,7.19l.42,2.41.91,5.59h0s.23,2.31.23,2.31h0s0,.19,0,.19l-.17,1.34s0,0,0,0c0,0,0,0,0,0l-.6,1.38h0s0,0,0,0l-1.08,1.7s-.02.01-.02.02c-.03.04-.06.06-.1.09-.01,0-.03.02-.04.03-.05.02-.11.04-.17.04h-.01l-10.07-.3-9.6-.47-1.37-.1h0l-2.51-.27-2.5-.44-1.64-.39s0,0,0,0l-1.62-.52-1.56-.72-.99-.58s0,0,0,0c0,0,0,0,0,0l-.76-.57-.69-.68-.59-.78-.47-.85s0,0,0-.02c0,0,0,0,0,0l-.5-1.33-.29-1.4-.07-.96h0s0,0,0,0M164.24,171.58h0l-2.11-6.49-.68-1.53-.29-.47s0,0,0,0l-.48-.97-.17-.64h0s0-.01,0-.02l-.07-.85.1-.87s0,0,0,0c0,0,0,0,0,0l.39-1.09.35-.61s0,0,0,0c0,0,0,0,0,0l1.16-1.39.19-.18s0,0,0,0h0s1.07-.84,1.07-.84h0l1.39-.87h0s1.5-.79,1.5-.79h0s0,0,0,0l1.38-.57h0l1.91-.59h0s0,0,0,0l1.34-.19h.17s1.2.13,1.2.13h0l2,.5,1.7.39h0l2.69.42h0l3.05.39h0l2.99.29,5.58.57,4.32.76s0,0,0,0l3.16.91s0,0,0,0c0,0,0,0,.01,0l.69.32.64.46.37.38s0,0,0,.01c0,0,0,0,0,0l.45.83.04.14s0,0,0,0h0s.45,2.14.45,2.14l.44,2.8h0s.41,3.5.41,3.5l.38,3.74.47,4.52.47,4.55.41,3.84.32,3.37h0s.21,3.09.21,3.09l.11,2.59s0,0,0,0h0v.13l-.11.97s0,0,0,0v.02l-.27.74-.44.68-.38.39s0,0,0,0c0,0,0,0,0,0l-1.35,1.03-.88.52h0s0,0,0,0l-1.83.81-1.15.37h0l-2.5.52-.85.1h0s0,0,0,0l-2.08.09-2.09-.1s0,0,0,0h0l-6.35-.8h0l-6.26-1.14s0,0,0,0l-1.88-.5-1.82-.71s0,0,0,0c0,0,0,0,0,0l-1.01-.6-.88-.81s0,0,0,0c0,0,0,0,0,0l-.99-1.36-.48-.89s0,0,0,0c0,0,0,0,0,0l-1.03-2.58-.27-.89h0s-1.39-5.49-1.39-5.49l-1.39-5.39-2.03-6.75ZM232.93,200.93l-.07.67-.23.68-.38.61-.5.51s-.01,0-.02,0c0,0,0,0,0,.01l-1.15.8-1.25.67-.87.36s0,0,0,0h0l-1.91.62-1.96.47-1.32.23h0l-5.35.62-1.79.13h-.01l-4.91.28h-.49s-1.46-.07-1.46-.07c0,0,0,0,0,0h0l-1.07-.3-.34-.17s0,0,0,0c0,0,0,0,0,0l-1.51-1.02h0l-1.49-1.31s0,0,0,0c0,0,0,0,0,0l-.4-.54-.15-.4s0-.01,0-.02c0,0,0,0,0,0l-.06-.53.1-.55s0,0,0,0h0s.71-1.95.71-1.95h0s.79-1.52.79-1.52l.33-.47s0,0,0,0h0s1.7-1.88,1.7-1.88t0,0s0,0,0,0l2.01-1.61.3-.21h0s2.97-1.8,2.97-1.8h0s1.96-.93,1.96-.93h0l1.77-.55h0l2.12-.3s0,0,0,0h0s3.27-.16,3.27-.16l3.13-.05h0l1.9.13h0l1.34.33s0,0,0,0c0,0,0,0,0,0l1.12.62s0,0,0,0h0l.78.78.37.57h0s0,.01,0,.01l.98,2.22s0,0,0,0h0s.71,2.55.71,2.55h0s0,0,0,0l.25,2.12v.31s0,0,0,.02c0,0,0,0,0,.01M235.83,193.51l-.45-2.76h0s-.22-2.85-.22-2.85c0,0,0,0,0,0v-.45s.07-1.38.07-1.38c0,0,0,0,0,0h0s.36-1.67.36-1.67t0,0h0s.75-1.89.75-1.89h0s1.36-2.65,1.36-2.65h0s1.08-2.14,1.08-2.14c0,0,0,0,0,0l1.12-2.51h0s.98-2.47.98-2.47l.66-2,.6-2.09.76-2.68.8-2.8.71-2.48,1.38-4.38s0,0,0,0l1.43-3.62s0,0,0,0l1.42-2.79s0,0,0,0h0s.81-1.13.81-1.13l.58-.6s0,0,0,0c0,0,0,0,0,0l1.26-.97,1.05-.59.37-.17s0,0,0,0h0l6.65-2.76h0l6.92-2.55h0l3.18-.95,1.94-.46h0l2.06-.37,2.09-.24,2.1-.11h1.05s1.05.02,1.05.02h0l3.93.26,3.92.45,2.6.4h0l4.76.93,4.71,1.16s0,0,.02,0c0,0,0,0,.01,0l.42.15.44.24.4.31.34.37.28.42.21.46.13.49.06.51s0,0,0,.02,0,.01,0,.02v.13s0,.08,0,.1c0,0-.02.12-.02.12,0,.01-.03.13-.03.15h-.02s0,.05,0,.07l-.79,2.27-.96,2.65h0l-1.14,3.03-3.68,9.31-2.32,5.55h0s-1.77,3.93-1.77,3.93l-1.92,3.87-1.37,2.53s0,0,0,0l-1.63,2.75-1.78,2.67-1.27,1.72s0,0,0,0h0s-1.05,1.27-1.05,1.27l-1.16,1.19-1.25,1.1-1.33.99h0s0,0,0,0l-2,1.28-2.8,1.52-.72.34h0s-3,1.27-3,1.27l-3.09,1.04h0s0,0,0,0l-3.85,1.02-3.91.8h0l-9.58,1.5-1.37.18-2.39.32h0l-2.28.33h0l-1.95.3-.99.18s-.03,0-.04,0l-1.02.11h0s-.11,0-.13,0c0,0-.1-.01-.11-.01,0,0-.1-.02-.11-.02-.01,0-.1-.03-.11-.03,0,0-.1-.04-.11-.04,0,0-.09-.04-.09-.05,0,0-.09-.05-.1-.06-.02,0-.03-.03-.05-.05-.02,0-.03,0-.05-.02,0,0-.08-.07-.09-.07,0,0-.08-.07-.09-.08,0,0-.08-.08-.09-.08,0,0-.07-.08-.08-.09,0,0-.07-.08-.07-.09,0,0-.06-.09-.07-.09,0,0-.06-.09-.07-.1,0-.02,0-.04-.02-.06,0-.01-.02-.02-.03-.03l-.64-1.32h0s0,0,0,0l-.88-2.38h0s-.67-2.6-.67-2.6h0M300.31,165.79l.08-.88h0s.34-1.51.34-1.51h0s.46-1.75.46-1.75h0s.55-1.8.55-1.8h0s2.09-5.91,2.09-5.91h0s2.36-5.84,2.36-5.84h0s2.26-4.98,2.26-4.98h0s0,0,0,0l.96-1.7.68-.96s0,0,0,0c0,0,0,0,0,0l.74-.84.86-.75.63-.43s0,0,0,0c0,0,0,0,0,0l1.38-.73,1.49-.51h0s0,0,0,0l1.77-.34,1.81-.11h0l3.29.18,1.09.14h0l3.09.58,1.83.48h0s0,0,0,0l2.22.75,2.16.95h0s0,0,0,0l3.1,1.69,1.8,1.14h0s0,0,0,0l6.9,4.81,2.31,1.62,2.55,1.65h0l2.41,1.46,1.8.97s0,0,0,0l1.81,1,1.71,1.18h0s0,0,0,0l2.97,2.46.95.87h0s2.86,2.91,2.86,2.91l.91,1.02s0,0,0,0h0s2.33,2.95,2.33,2.95l.71,1.03h0s2.7,4.32,2.7,4.32h0s0,0,0,0l.66,1.34.47,1.44s0,0,0,0c0,0,0,0,0,0l.09.73-.09.76-.16.49s0,0,0,0c0,0,0,.01,0,.02l-.37.62-.54.52-.43.26h0s0,0,0,0l-.76.55h0l-1.89,2.06-2.19,2.56s0,0,0,0l-2.31,2.9h0l-5.03,6.38h0s-2.26,2.5-2.26,2.5l-.35.33h0s0,0,0,0l-.87.7-1,.56s0,0-.01,0c0,0,0,0-.01,0l-.65.19-.24.02-.71-.07-.23-.07s0,0,0,0h-.01l-1.08-.52-.6-.42s0,0,0,0h0l-2.29-1.94h0l-2.58-2.55h0s-2.62-2.96-2.62-2.96c0,0,0,0,0,0l-1.8-1.98-1.95-1.82-1.38-1.12-2.28-1.64-2.39-1.48-1.64-.89-3.01-1.43-3.08-1.26-2.08-.74h0l-5.39-1.7-5.44-1.5s0,0,0,0l-5.48-1.53h0l-2.53-.95-.82-.39h0s0,0,0,0l-1.25-.79-.68-.58s0,0,0,0c0,0,0,0-.02-.01l-.42-.54-.2-.44-.12-.72h0v-.02M434.58,204.36s-.05-.01-.07-.02l-.08.04s-.06-.08-.06-.08l.02-.02s-.06-.04-.07-.06c0,0-.09-.13-.09-.13,0,0-.09-.13-.09-.14,0,0-.09-.14-.09-.15,0,0-.08-.14-.08-.14,0,0,0,0,0,0,0,0,0,0,0,0,0,0-.05-.09-.05-.1,0-.01-.03-.07-.04-.09,0,0-.03-.1-.03-.11,0,0-.02-.11-.03-.12h.03s-.04-.06-.04-.09v-.13s0-.1,0-.12c0,0,.02-.11.02-.12,0-.02.02-.09.03-.11,0,0,.04-.11.04-.11s0,0,0,0c0,0,0,0,0,0l.59-1.24s0,0,0,0l.76-1.47h0s.91-1.62.91-1.62h0l2.57-4.3,3.18-5.1,3.07-4.8,2.07-3.04h0s0,0,0,0l.91-1.15,1.03-1.05.75-.64s0,0,0,0c0,0,0,0,0,0l.66-.45.74-.38.78-.28.81-.17h0s0,0,.01,0l1.41-.1,1.43.11.93.19s0,0,0,0h0l4.09,1.23,1.34.49h0l4.08,1.75s0,0,0,0l4.29,2.23s0,0,0,0l3.8,2.23s0,0,0,0h0l.49.39.41.52.2.39s0,0,0,.02c0,0,0,0,0,.02l.15.61v.22s-.07.66-.07.66l-.07.21s0,0,0,0h0s-1.21,2.7-1.21,2.7h0s-2.35,4.12-2.35,4.12h0s-4.52,7.18-4.52,7.18l-2.73,4.15h0s-2.54,3.58-2.54,3.58h0s-2.18,2.82-2.18,2.82c0,0,0,0,0,0h0s-1.43,1.44-1.43,1.44c0,0,0,0,0,0l-1.55,1.19h0s-1.05.51-1.05.51h-.01s0,0,0,0l-.68.1-.43-.02s0,0,0,0h0l-1.53-.3s0,0,0,0h0l-1.92-.65-1.1-.52s0,0,0,0h0l-6.08-3.34h0l-5.98-3.52h0s0,0,0,0l-1.68-1.19-.93-.84h0s0,0,0,0l-.07-.07s-.07-.07-.07-.07l-.07-.07-.07-.07-.07-.08s-.07-.07-.07-.08l-.06-.07-.06-.07s0,0,0,0c0,0-.12-.15-.12-.15,0,0-.06-.08-.06-.08,0,0-.06-.07-.06-.08l.17-.21s-.08.04-.13.04M455.1,156.04l-.12.83-.19.48h0s0,0,0,.01l-1.9,3.55h0s-2.34,4.07-2.34,4.07l-2.64,4.24s0,0,0,0h0s-1.88,2.6-1.88,2.6l-.29.35s0,0,0,0h0s-1.35,1.43-1.35,1.43l-.9.77s0,0,0,0c0,0,0,0,0,0l-1.36.92-.89.46h0s0,0,0,0l-1.07.36-1.15.14h-.02l-1.27-.06-1.28-.24-1.24-.4-1.17-.56s0,0,0,0h0l-8.69-5.09-2.86-1.76h0l-5.79-3.71-5.68-3.88s0,0,0,0h0l-3.05-2.28-2.93-2.45-1.88-1.73h0s-2.65-2.73-2.65-2.73l-1.5-1.73h0s-1.02-1.38-1.02-1.38l-.87-1.48-.49-1.04h0s0-.01,0-.01l-.61-1.63-.44-1.7-.19-1.15h0s0,0,0,0l-.4-4-.11-2.41h0s-.14-5.11-.14-5.11c0-.02,0-.03,0-.05,0-.03,0-.05.02-.08,0-.03.02-.05.03-.06.01-.02.03-.05.04-.06.02-.02.04-.04.06-.06.01,0,.02-.02.04-.03l2.01-1.27h0l2.17-1.18h0l3.6-1.62,3.75-1.54,2.84-.99s0,0,0,0h0l1.07-.21.55-.02.55.04h0s0,0,0,0l1.44.32.84.32s0,0,0,0h0l1.68.91.95.66h0s0,0,0,0l3.37,2.73,5.48,4.59,8.35,6.63,8.41,6.51h0s5.64,4.14,5.64,4.14l4.07,2.9h0l1.96,1.55h0s0,0,0,0l1.04,1.08h0s0,.01,0,.02l.32.62.06.44h0v.02M472.63,119.64l-.4,1.9-.61,1.86h0s-2.2,5.11-2.2,5.11h0s-1.37,2.92-1.37,2.92l-1.41,3.11h0s-1.26,2.86-1.26,2.86l-.84,2.02-2.07,5.01s0,0,0,0l-1.18,2.31-.2.32s0,0,0,0h0s-.99,1.27-.99,1.27l-.39.37s0,0,0,0c0,0,0,0,0,0l-1.3.94-.48.25h0s0,0,0,0l-1.5.56-.52.12s0,0-.02,0h0l-.64.06-.88-.13-.21-.07s0,0,0,0h0l-1.88-.93-.25-.16s0,0,0,0l-5.73-3.79h0l-5.09-3.53-4.97-3.7-4.88-3.88-4.75-4.04h0s-8.12-7.43-8.12-7.43c0,0,0,0,0,0,0,0,0,0,0,0l-.57-.67-.45-.8-.28-.87-.11-.91s0,0,0-.02c0,0,0,0,0-.01l.16-.93s0,0,0,0h0s.51-1.24.51-1.24c0,0,0,0,0,0l.73-1.36h0s.86-1.31.86-1.31c0,0,0,0,0,0l2.45-3.14h0s2.77-3.1,2.77-3.1h0s2.68-2.65,2.68-2.65t0,0l1.83-1.45.28-.19h0s2.01-1.29,2.01-1.29h.01c.07-.05.17-.06.26-.05,0,0,.02,0,.03,0,0,0,.02,0,.03,0l9.57,3.28,4.35,1.39h0l5.22,1.49,5.24,1.36,4.38.98h0l4.22.91h0l3.26.83h0s2.43.75,2.43.75c0,0,0,0,0,0,0,0,0,0,0,0l.82.44.24.21s0,0,0,.01c0,0,0,0,.01,0l.57.7.42.83.17.6h0s0,.02,0,.02l.15,1.4-.09,1.42s0,0,0,0h0M444.63,16.49h0l1.52-1.52c.07-.07.17-.11.27-.11h20.03c.15,0,.27.08.34.2,0,0,0,0,0,0,.02.03.02.06.03.09,0,.02.01.03.02.05,0,0,.02.18.02.18,0,0,.01.18.01.18s0,.18,0,.18c0,0,0,.09,0,.1,0,.02,0,.03,0,.05,0,.01,0,.03,0,.04l-.15,1.58-.05.22s0,0,0,0h0s-.67,2.21-.67,2.21h0s-1.32,3.26-1.32,3.26h0s-2.6,5.8-2.6,5.8l-1.41,3.2-.56,1.68-.11,1.01v.13s.24,1.16.24,1.16c0,0,0,0,0,0l.39,1.47.11.92h0s.25,4.96.25,4.96h0s.06,3.72.06,3.72v1.24h0s-.19,1.99-.19,1.99l-.15.66h0s0,.01,0,.02l-.43.87s0,0,0,0t0,0l-.78.79s0,0,0,0t0,0l-1.15.78s0,0,0,0l-1.56.79h0l-1.94.82h0s-1.43.38-1.43.38h0s-.86.08-.86.08l-.53-.02h0s0,0,0,0l-1.75-.22h0l-9.18-1.85h0l-2.9-.74-2.85-.93s0,0,0,0h0l-1.99-.85-1.89-1.06s0,0,0,0h0l-1.15-.82-1.04-.97-.63-.71h0s0,0,0-.01l-1.63-2.33-.21-.35h0s0,0,0-.01l-.49-1.08-.26-1.18s0,0,0-.02c0,0,0,0,0,0l-.03-.55.13-1.15.16-.56s0,0,0,0c0,0,0,0,0,0l.87-1.96.36-.62s0,0,0,0l2.88-4.36.43-.61h0s4.14-5.39,4.14-5.39h0l4.69-5.49h0s5-5.28,5-5.28M499.61-.77H.39C.17-.77,0-.6,0-.38v250.12c0,.22.18.39.39.39h499.22c.21,0,.39-.18.39-.39V-.38c0-.22-.18-.39-.39-.39"/>
</svg>